<svg width="48" height="48" viewBox="0 0 48 48" fill="none" xmlns="http://www.w3.org/2000/svg">
<g id="debt" clip-path="url(#clip0_1993_23501)">
<path id="Vector" d="M40.401 25.4762V0.380952C40.401 0.170476 40.2305 0 40.02 0H24.161C24.0638 0 23.9714 0.0371429 23.9 0.102857L18.4514 5.2019C18.3743 5.27429 18.3314 5.37429 18.3314 5.48V14.9152H1.63905C0.764762 14.9152 0.0533333 15.621 0.0533333 16.4895V21.0133C0.0533333 21.8819 0.764762 22.5876 1.63905 22.5876H4.31905C4.14762 22.8486 4.04762 23.159 4.04762 23.4933V26.359C4.04762 26.6933 4.14762 27.0038 4.31905 27.2648H1.98952C1.88857 27.2648 1.79143 27.3057 1.72 27.3771C1.64952 27.4476 0 29.1371 0 32.0038C0 34.8705 1.64952 36.56 1.72 36.6305C1.79143 36.7029 1.88857 36.7429 1.98952 36.7429H24.5019C24.7057 42.9848 29.8962 48 36.2476 48C42.7276 48 48 42.779 48 36.3619C48 31.3924 44.8371 27.141 40.401 25.4762ZM23.78 1.25905V5.09905H19.6762L23.78 1.25905ZM19.0933 5.86095H21.8267C21.7067 6.15429 21.641 6.46952 21.641 6.78952C21.641 8.14095 22.74 9.23905 24.0905 9.23905H34.641C35.9924 9.23905 37.0905 8.14095 37.0905 6.78952C37.0905 5.43905 35.9924 4.34 34.641 4.34H24.5419V0.761905H39.639V25.219C38.5648 24.8981 37.4267 24.7248 36.2476 24.7248C35.5381 24.7248 34.8429 24.7867 34.1676 24.9067V23.4933C34.1676 22.5733 33.4133 21.8257 32.4867 21.8257H29.519C29.6638 21.5886 29.7467 21.3105 29.7467 21.0133V20.5305H36.0419C36.2524 20.5305 36.4229 20.36 36.4229 20.1495C36.4229 19.939 36.2524 19.7686 36.0419 19.7686H29.7467V16.6229H36.0419C36.2524 16.6229 36.4229 16.4524 36.4229 16.2419C36.4229 16.0314 36.2524 15.861 36.0419 15.861H29.6143C29.3695 15.3048 28.8105 14.9152 28.161 14.9152H19.0933V5.86095ZM11.6733 15.6771H22.1943C22.5629 15.9248 24.0581 17.0333 24.0581 18.7514C24.0581 20.4705 22.5619 21.579 22.1943 21.8257H11.6733C11.3048 21.5781 9.81048 20.4695 9.81048 18.7514C9.81048 17.0333 11.3048 15.9248 11.6733 15.6771ZM4.80952 26.359V23.4933C4.80952 22.9933 5.22095 22.5876 5.72762 22.5876H32.4867C32.9933 22.5876 33.4057 22.9933 33.4057 23.4933V25.0695C31.7457 25.479 30.2248 26.239 28.9267 27.2648H5.72762C5.22095 27.2648 4.80952 26.859 4.80952 26.359ZM9.84095 35.981H6.38191V28.0267H9.84095V35.981ZM36.2476 47.2381C30.1867 47.2381 25.2562 42.359 25.2562 36.3619C25.2562 30.3648 30.1867 25.4867 36.2476 25.4867C42.3076 25.4867 47.2381 30.3648 47.2381 36.3619C47.2381 42.359 42.3076 47.2381 36.2476 47.2381Z" fill="black"/>
<path id="Vector_2" d="M38.7962 33.4217C38.7962 34.1351 39.3809 34.7141 40.099 34.7141C40.8162 34.7141 41.4009 34.1351 41.4009 33.4217C41.4009 31.4875 39.8 29.8056 37.5495 29.3246V28.7484C37.5495 28.036 36.9657 27.456 36.2476 27.456C35.5295 27.456 34.9457 28.036 34.9457 28.7484V29.3246C32.6952 29.8065 31.0943 31.4875 31.0943 33.4217C31.0943 35.356 32.6952 37.0379 34.9457 37.5189V40.7075C34.1924 40.4056 33.6981 39.8675 33.6981 39.3046C33.6981 38.5913 33.1143 38.0113 32.3962 38.0113C31.6781 38.0113 31.0943 38.5913 31.0943 39.3046C31.0943 41.2389 32.6952 42.9198 34.9457 43.4008V43.9779C34.9457 44.6903 35.5295 45.2703 36.2476 45.2703C36.9657 45.2703 37.5495 44.6903 37.5495 43.9779V43.4008C39.8 42.9198 41.4009 41.2389 41.4009 39.3046C41.4009 37.3703 39.8 35.6884 37.5495 35.2075V32.0189C38.3028 32.3208 38.7962 32.8589 38.7962 33.4217ZM37.5495 40.7075V37.9008C38.3028 38.2027 38.7962 38.7417 38.7962 39.3046C38.7962 39.8665 38.3028 40.4056 37.5495 40.7075ZM34.9457 32.0189V34.8246C34.1924 34.5227 33.6981 33.9846 33.6981 33.4217C33.6981 32.8589 34.1924 32.3208 34.9457 32.0189ZM36.4228 12.336C36.4228 12.1256 36.2524 11.9551 36.0419 11.9551H22.6895C22.479 11.9551 22.3086 12.1256 22.3086 12.336C22.3086 12.5456 22.479 12.717 22.6895 12.717H36.0419C36.2524 12.717 36.4228 12.5456 36.4228 12.336ZM29.1467 24.9275C29.1467 24.717 28.9762 24.5465 28.7657 24.5465H10.2219C10.0114 24.5465 9.84094 24.717 9.84094 24.9275C9.84094 25.137 10.0114 25.3084 10.2219 25.3084H28.7657C28.9762 25.3084 29.1467 25.137 29.1467 24.9275Z" fill="black"/>
</g>
<defs>
<clipPath id="clip0_1993_23501">
<rect width="48" height="48" fill="white"/>
</clipPath>
</defs>
</svg>
