<svg width="675" height="69" viewBox="0 0 675 69" fill="none" xmlns="http://www.w3.org/2000/svg">
<path d="M72 0H675V24C675 46.0914 657.091 64 635 64H72V0Z" fill="#F7E82E"/>
<path d="M32 -2.5H29.5V0V64V66.5H32H595C618.472 66.5 637.5 47.4721 637.5 24V0V-2.5H635H32Z" fill="#2C5C71" stroke="white" stroke-width="5"/>
<path d="M0 0H603V24C603 46.0914 585.091 64 563 64H0V0Z" fill="url(#paint0_linear_909_23402)"/>
<path d="M30 31H24M26 35H24M32 27H24M36 30V26.8C36 25.1198 36 24.2798 35.673 23.638C35.3854 23.0735 34.9265 22.6146 34.362 22.327C33.7202 22 32.8802 22 31.2 22H24.8C23.1198 22 22.2798 22 21.638 22.327C21.0735 22.6146 20.6146 23.0735 20.327 23.638C20 24.2798 20 25.1198 20 26.8V37.2C20 38.8802 20 39.7202 20.327 40.362C20.6146 40.9265 21.0735 41.3854 21.638 41.673C22.2798 42 23.1198 42 24.8 42H28.5M34 41C34 41 37 39.5701 37 37.4252V34.9229L34.8124 34.1412C34.2868 33.9529 33.712 33.9529 33.1864 34.1412L31 34.9229V37.4252C31 39.5701 34 41 34 41Z" stroke="white" stroke-width="1.2" stroke-linecap="round" stroke-linejoin="round"/>
<path d="M53.504 38H49.296V26.304H53.392C56.848 26.304 59.232 28.688 59.232 32.176C59.232 35.616 56.896 38 53.504 38ZM53.2 28.192H51.344V36.112H53.312C55.648 36.112 57.072 34.608 57.072 32.176C57.072 29.696 55.616 28.192 53.2 28.192ZM64.4678 38.208C62.1158 38.208 60.4677 36.496 60.4677 34.048C60.4677 31.568 62.0838 29.856 64.4037 29.856C66.7718 29.856 68.2758 31.44 68.2758 33.904V34.496L62.3238 34.512C62.4678 35.904 63.2038 36.608 64.4998 36.608C65.5718 36.608 66.2758 36.192 66.4998 35.44H68.3078C67.9718 37.168 66.5318 38.208 64.4678 38.208ZM64.4198 31.456C63.2678 31.456 62.5638 32.08 62.3718 33.264H66.3398C66.3398 32.176 65.5877 31.456 64.4198 31.456ZM72.5279 38H70.5759V31.728H69.0559V30.096H70.5759V27.632H72.5279V30.096H74.0639V31.728H72.5279V38ZM77.6625 38.208C75.9825 38.208 74.9585 37.232 74.9585 35.744C74.9585 34.288 76.0145 33.376 77.8865 33.232L80.2545 33.056V32.88C80.2545 31.808 79.6145 31.376 78.6225 31.376C77.4705 31.376 76.8305 31.856 76.8305 32.688H75.1665C75.1665 30.976 76.5745 29.856 78.7185 29.856C80.8465 29.856 82.1585 31.008 82.1585 33.2V38H80.4465L80.3025 36.832C79.9665 37.648 78.8945 38.208 77.6625 38.208ZM78.3025 36.736C79.5025 36.736 80.2705 36.016 80.2705 34.8V34.384L78.6225 34.512C77.4065 34.624 76.9425 35.024 76.9425 35.664C76.9425 36.384 77.4225 36.736 78.3025 36.736ZM85.1321 28.512C84.4601 28.512 83.9321 27.984 83.9321 27.328C83.9321 26.672 84.4601 26.16 85.1321 26.16C85.7721 26.16 86.3001 26.672 86.3001 27.328C86.3001 27.984 85.7721 28.512 85.1321 28.512ZM84.1561 38V30.096H86.1081V38H84.1561ZM90.1729 38H88.2369V26.096H90.1729V38ZM97.989 38H95.861L100.085 26.304H102.181L106.405 38H104.245L103.301 35.296H98.933L97.989 38ZM100.869 29.792L99.541 33.568H102.709L101.365 29.792C101.269 29.488 101.157 29.136 101.125 28.896C101.077 29.12 100.981 29.472 100.869 29.792ZM106.997 33.872C106.997 31.568 108.501 29.84 110.757 29.84C111.941 29.84 112.869 30.336 113.333 31.184L113.445 30.096H115.253V37.6C115.253 40.24 113.669 41.888 111.109 41.888C108.837 41.888 107.285 40.592 107.045 38.48H108.997C109.125 39.504 109.909 40.112 111.109 40.112C112.453 40.112 113.317 39.264 113.317 37.952V36.64C112.821 37.376 111.845 37.84 110.709 37.84C108.469 37.84 106.997 36.16 106.997 33.872ZM108.965 33.824C108.965 35.152 109.813 36.144 111.093 36.144C112.437 36.144 113.269 35.2 113.269 33.824C113.269 32.48 112.453 31.552 111.093 31.552C109.797 31.552 108.965 32.528 108.965 33.824ZM122.313 30.064V31.872H121.593C120.185 31.872 119.305 32.624 119.305 34.16V38H117.353V30.112H119.193L119.305 31.264C119.641 30.48 120.393 29.952 121.449 29.952C121.721 29.952 121.993 29.984 122.313 30.064ZM126.985 38.208C124.633 38.208 122.985 36.496 122.985 34.048C122.985 31.568 124.601 29.856 126.921 29.856C129.289 29.856 130.793 31.44 130.793 33.904V34.496L124.841 34.512C124.985 35.904 125.721 36.608 127.017 36.608C128.089 36.608 128.793 36.192 129.017 35.44H130.825C130.489 37.168 129.049 38.208 126.985 38.208ZM126.937 31.456C125.785 31.456 125.081 32.08 124.889 33.264H128.857C128.857 32.176 128.105 31.456 126.937 31.456ZM135.971 38.208C133.619 38.208 131.971 36.496 131.971 34.048C131.971 31.568 133.587 29.856 135.907 29.856C138.275 29.856 139.779 31.44 139.779 33.904V34.496L133.827 34.512C133.971 35.904 134.707 36.608 136.003 36.608C137.075 36.608 137.779 36.192 138.003 35.44H139.811C139.475 37.168 138.035 38.208 135.971 38.208ZM135.923 31.456C134.771 31.456 134.067 32.08 133.875 33.264H137.843C137.843 32.176 137.091 31.456 135.923 31.456ZM143.373 38H141.421V30.096H143.213L143.373 31.024C143.773 30.368 144.573 29.856 145.709 29.856C146.909 29.856 147.741 30.448 148.157 31.36C148.557 30.448 149.485 29.856 150.685 29.856C152.605 29.856 153.661 31.008 153.661 32.832V38H151.725V33.344C151.725 32.208 151.117 31.616 150.189 31.616C149.245 31.616 148.525 32.224 148.525 33.52V38H146.573V33.328C146.573 32.224 145.981 31.632 145.053 31.632C144.125 31.632 143.373 32.24 143.373 33.52V38ZM159.193 38.208C156.841 38.208 155.193 36.496 155.193 34.048C155.193 31.568 156.809 29.856 159.129 29.856C161.497 29.856 163.001 31.44 163.001 33.904V34.496L157.049 34.512C157.193 35.904 157.929 36.608 159.225 36.608C160.297 36.608 161.001 36.192 161.225 35.44H163.033C162.697 37.168 161.257 38.208 159.193 38.208ZM159.145 31.456C157.993 31.456 157.289 32.08 157.097 33.264H161.065C161.065 32.176 160.313 31.456 159.145 31.456ZM166.596 38H164.644V30.096H166.452L166.612 31.12C167.108 30.32 168.068 29.856 169.14 29.856C171.124 29.856 172.148 31.088 172.148 33.136V38H170.196V33.6C170.196 32.272 169.54 31.632 168.532 31.632C167.332 31.632 166.596 32.464 166.596 33.744V38ZM176.833 38H174.881V31.728H173.361V30.096H174.881V27.632H176.833V30.096H178.369V31.728H176.833V38Z" fill="white"/>
<defs>
<linearGradient id="paint0_linear_909_23402" x1="-515.5" y1="32.0001" x2="603" y2="32.0001" gradientUnits="userSpaceOnUse">
<stop stop-color="#2F6679"/>
<stop offset="1" stop-color="#489DB4"/>
</linearGradient>
</defs>
</svg>
