<svg width="3000" height="3000" viewBox="0 0 3000 3000" fill="none" xmlns="http://www.w3.org/2000/svg">
<path d="M2599.71 1314.7L2355.72 1651.5C2325.55 1693.15 2317.42 1746.83 2333.92 1795.55L2417.24 2041.55C2449.64 2137.21 2385.64 2238.41 2285.32 2250.14L1934.6 2291.13C1872 2298.45 1819.66 2342.1 1801.23 2402.37L1761.42 2532.53C1722.22 2660.69 1551.65 2685.6 1477.44 2574L1024.69 1893.14C999.49 1855.24 959.24 1829.99 914.15 1823.78L462.66 1761.64C333.65 1743.88 279.73 1586.89 370.61 1493.61L553.98 1305.4C625.11 1232.39 609.98 1112.22 522.97 1059.13C411.38 991.03 425.33 824.79 546.71 776.24L695.29 716.82C755.83 692.61 795.4 633.84 795.08 568.64L794.84 520.17C794.13 377.29 967.79 306.28 1067.39 408.73L1256.64 603.39C1308.36 656.59 1390.04 666.86 1453.32 628.13L1860.73 378.78C1971.22 311.16 2111.82 397.21 2101.86 526.36L2073.56 893.7C2066.42 986.37 2140.08 1065.32 2233.02 1064.63L2469.97 1062.85C2600.11 1061.87 2676.06 1209.31 2599.71 1314.7Z" fill="#F2F7FF"/>
<path d="M1830.54 1999.22C1847.95 1956.98 1868.26 1918.64 1892.01 1883.37C1930.86 1825.71 1972.66 1795 2016.31 1792.05C2017.32 1791.98 2018.33 1791.93 2019.34 1791.89C2032.86 1791.36 2043.6 1793.99 2051.25 1799.71C2066.93 1811.45 2068.01 1836.02 2059.98 1852.99C2050.9 1872.2 2032.38 1886.14 2015.47 1897.23C1994.62 1910.91 1972.27 1923.2 1950.66 1935.09C1922.92 1950.36 1894.22 1966.14 1868.03 1985.17C1861.7 1989.77 1855.65 1994.55 1849.86 1999.45C1797.02 2071.14 1733.51 2174.16 1711.86 2278.34C1707.24 2300.59 1705.3 2319.35 1704.75 2334.45C1721.99 2294.96 1763.61 2236.79 1863.92 2183.3C1896.28 2154.38 1929.56 2129.84 1964.47 2109.1C2024.25 2073.61 2075.17 2063.74 2115.89 2079.75C2116.83 2080.12 2117.77 2080.5 2118.69 2080.9C2131.14 2086.21 2139.71 2093.18 2144.18 2101.62C2153.33 2118.94 2143.79 2141.61 2129.27 2153.51C2112.84 2166.99 2090.14 2171.66 2070.11 2174.45C2045.42 2177.89 2019.95 2179.43 1995.33 2180.94C1963.72 2182.87 1931.03 2184.85 1899.22 2190.85C1889.32 2192.72 1879.72 2195.03 1870.43 2197.72C1870.42 2197.72 1870.41 2197.73 1870.41 2197.73C1875.01 2198.58 1880.32 2199.81 1886.43 2201.57C1913.12 2202.72 1938.56 2205.98 1963.17 2211.48C2009.54 2221.85 2039.48 2240.8 2052.23 2267.85C2052.52 2268.47 2052.81 2269.1 2053.08 2269.74C2056.78 2278.22 2057.78 2285.7 2056.05 2291.99C2052.48 2304.89 2037.12 2311.7 2024.32 2310.81C2009.83 2309.81 1996.35 2301.5 1985.08 2293.5C1971.19 2283.64 1957.8 2272.47 1944.85 2261.68C1928.23 2247.82 1911.04 2233.49 1892.41 2221.56C1890.63 2220.42 1888.84 2219.32 1887.05 2218.24C1861.36 2210.18 1850.43 2211.89 1849.9 2211.98C1848.48 2212.3 1847.08 2212.19 1845.78 2211.78C1786.02 2248.03 1753.07 2284.62 1735.13 2312C1708.89 2352.06 1708.28 2381.44 1708.27 2381.82C1708.27 2381.97 1708.23 2382.1 1708.23 2382.24C1708.21 2382.52 1708.19 2382.79 1708.14 2383.07C1708.1 2383.32 1708.04 2383.56 1707.98 2383.8C1707.91 2384.05 1707.84 2384.29 1707.75 2384.53C1707.66 2384.77 1707.56 2385.01 1707.44 2385.24C1707.33 2385.46 1707.21 2385.68 1707.08 2385.89C1706.95 2386.11 1706.81 2386.31 1706.66 2386.51C1706.51 2386.71 1706.34 2386.91 1706.17 2387.1C1706 2387.28 1705.83 2387.45 1705.65 2387.61C1705.46 2387.78 1705.26 2387.95 1705.05 2388.1C1704.84 2388.25 1704.63 2388.39 1704.41 2388.52C1704.2 2388.65 1703.99 2388.76 1703.76 2388.87C1703.51 2388.99 1703.24 2389.09 1702.97 2389.19C1702.84 2389.24 1702.72 2389.31 1702.58 2389.35C1702.5 2389.37 1702.43 2389.36 1702.35 2389.38C1701.84 2389.51 1701.31 2389.59 1700.77 2389.62C1700.66 2389.63 1700.55 2389.65 1700.44 2389.65C1700.42 2389.65 1700.4 2389.66 1700.38 2389.66C1699.8 2389.66 1699.23 2389.57 1698.69 2389.45C1698.62 2389.43 1698.55 2389.44 1698.48 2389.43C1698.48 2389.43 1698.48 2389.43 1698.47 2389.43C1698.46 2389.43 1698.47 2389.43 1698.46 2389.43C1697.87 2389.28 1697.32 2389.05 1696.79 2388.77C1696.67 2388.71 1696.56 2388.65 1696.44 2388.58C1695.93 2388.28 1695.44 2387.94 1695.01 2387.54C1694.95 2387.49 1694.9 2387.42 1694.85 2387.37C1694.46 2386.99 1694.12 2386.56 1693.82 2386.11C1693.75 2386.01 1693.68 2385.91 1693.61 2385.8C1693.3 2385.28 1693.05 2384.72 1692.87 2384.12C1692.86 2384.07 1692.83 2384.04 1692.81 2383.99C1692.36 2382.45 1682.03 2345.58 1696.06 2276.71C1717.12 2173.68 1777.84 2072.16 1830.54 1999.22Z" fill="#0C0C0F"/>
<path d="M2008.79 1856.36C2018 1856.36 2025.46 1848.9 2025.46 1839.69C2025.46 1830.48 2018 1823.02 2008.79 1823.02C1999.58 1823.02 1992.12 1830.48 1992.12 1839.69C1992.12 1848.9 1999.58 1856.36 2008.79 1856.36Z" fill="white"/>
<path d="M2078.36 2145.01C2087.57 2145.01 2095.03 2137.55 2095.03 2128.34C2095.03 2119.13 2087.57 2111.67 2078.36 2111.67C2069.15 2111.67 2061.69 2119.13 2061.69 2128.34C2061.69 2137.55 2069.15 2145.01 2078.36 2145.01Z" fill="white"/>
<path d="M2018.61 2286.95C2026.28 2286.95 2032.5 2280.73 2032.5 2273.06C2032.5 2265.39 2026.28 2259.17 2018.61 2259.17C2010.94 2259.17 2004.72 2265.39 2004.72 2273.06C2004.72 2280.73 2010.94 2286.95 2018.61 2286.95Z" fill="white"/>
<path d="M933.4 2062.49C970 2117.57 1000.61 2176.62 1023.5 2239.56C1035.11 2271.48 1044.82 2306.53 1034.74 2338.97C1023.73 2374.39 990.68 2399.33 955.49 2411.07C869.53 2439.75 772.52 2399.87 709.04 2335.19C645.56 2270.51 608.81 2184.91 574.25 2101.13C547.04 2035.18 519.94 1968.16 479.15 1909.17C461.66 1883.88 368.05 1790.46 399.89 1757.21C443.21 1710.29 593.55 1729.61 701.65 1815.23C790.69 1885.76 870.81 1968.31 933.4 2062.49Z" fill="#0C0C0F"/>
<path d="M523.5 1819.73C526.47 1816.21 531.73 1815.78 535.24 1818.75C686.42 1946.56 794.7 2099.9 858.92 2206.03C859.27 2206.61 859.61 2207.18 859.96 2207.76C848.16 2137.04 812.19 1990.42 708.98 1894.64C705.79 1891.68 705.6 1886.7 708.56 1883.51C711.52 1880.32 716.5 1880.14 719.69 1883.09C795.14 1953.11 834.99 2048.52 855.13 2116.23C873.56 2178.18 879.23 2227.74 880.64 2242.91C935.66 2338.96 962.93 2407.23 963.24 2408C964.93 2412.28 962.84 2417.12 958.56 2418.82C958.52 2418.83 958.48 2418.85 958.44 2418.86C954.19 2420.47 949.42 2418.37 947.74 2414.14C947.15 2412.66 920.62 2346.75 866.83 2252.82C866.51 2252.38 866.24 2251.91 866.02 2251.41C846.19 2216.86 822.69 2178.57 795.46 2138.32C774.52 2142.88 709.68 2146.35 630.32 2046.39C627.61 2042.98 628.18 2038.03 631.59 2035.33C635 2032.62 639.95 2033.19 642.65 2036.6C708.85 2119.98 763.13 2125.85 785.54 2123.8C719.46 2028.19 632.74 1923 524.49 1831.49C520.97 1828.5 520.53 1823.25 523.5 1819.73Z" fill="white"/>
<path d="M1581.79 467.67C1544.87 475.6 1511.49 492.21 1483.65 515.09L1417.52 459.97L1368.28 511.65L1429.8 578.63C1412.9 607.91 1402.27 641.09 1399.55 676.2L1302.95 690.93L1309 762.03L1408.35 760.23C1418.05 793.15 1434.78 822.8 1456.67 847.63L1403.81 929.52L1461.06 972.13L1522.85 899.73C1552.04 915.11 1584.78 924.4 1619.24 926.08L1637.57 1020.37L1708.38 1011.45L1702.69 914.98C1728.66 906.54 1752.49 893.68 1773.39 877.37L1845.58 939.88L1895.76 889.15L1829.45 814.15C1846.41 786.06 1857.54 754.21 1861.31 720.39L1945.45 707.1L1939.04 636.04L1855.79 637.99C1846.98 602.67 1830.19 570.8 1807.56 544.21L1860.96 464.82L1804.52 421.14L1742.49 491.11C1719.36 478.38 1693.91 469.51 1667.08 465.28L1644.83 362.36L1574.21 372.77L1581.79 467.67ZM1618.46 549.35C1698.56 542.54 1769.03 601.96 1775.81 682.06C1782.62 762.16 1723.2 832.62 1643.11 839.45C1563 846.25 1492.54 786.82 1485.74 706.72C1478.94 626.63 1538.36 556.16 1618.46 549.35Z" fill="#0C0C0F"/>
<path d="M919.37 1126.38C919.2 1061.56 964.79 982.71 1021.13 950.2L1507.17 669.72C1535.53 653.35 1561.24 651.83 1579.8 662.62L1623.24 687.97C1623.29 688 1623.34 688.03 1623.39 688.06L1623.67 688.22V688.23C1641.98 698.88 1653.34 721.49 1653.43 753.69L1652.92 2044.96C1653.09 2109.69 1607.5 2188.63 1551.16 2221.15L1065.13 2501.63C1036.77 2517.99 1011.08 2519.49 992.52 2508.69V2508.7L948.64 2483.11C930.32 2472.46 918.96 2449.81 918.87 2417.65L919.37 1126.38Z" fill="#0C0C0F"/>
<path d="M1040.57 2498.39L1169.14 2424.18L1468.86 2251.24L1548.24 2205.42C1604.83 2172.76 1639.69 2112.38 1639.7 2047.05L1639.89 744.45C1639.89 709.26 1601.81 687.27 1571.33 704.85L1467.53 764.75C1466.46 765.37 1465.49 766.16 1464.67 767.08L1389.53 851.8C1388.71 852.73 1387.74 853.51 1386.67 854.13L1234.38 942C1232.16 943.28 1229.57 943.78 1227.03 943.43L1175.37 936.18C1172.83 935.82 1170.24 936.33 1168.02 937.61L1073.74 992.02C1016.37 1025.13 981.03 1086.33 981.02 1152.56L980.83 2463.89C980.81 2494.55 1014.01 2513.72 1040.57 2498.39Z" fill="white"/>
<path d="M1377.76 842.41L1276.5 900.86C1270.92 904.08 1266.4 902.17 1266.4 896.59C1266.4 891.01 1270.92 883.88 1276.5 880.66L1377.76 822.21C1383.34 818.99 1387.86 820.9 1387.86 826.48C1387.86 832.06 1383.34 839.19 1377.76 842.41ZM943.53 1361.94C945.51 1364.2 947.2 1366.86 948.43 1369.65C949.83 1372.81 950.63 1376.13 950.63 1379.18L950.62 1486.51C950.61 1490.53 949.2 1493.35 946.94 1494.67L937.76 1499.99C940.03 1498.67 941.44 1495.85 941.45 1491.83L941.46 1384.5C941.47 1381.45 940.66 1378.13 939.26 1374.97C938.03 1372.19 936.34 1369.52 934.36 1367.26C932.69 1365.36 930.81 1363.74 928.81 1362.59L925.32 1360.58C921.81 1358.55 918.62 1358.37 916.3 1359.72L925.47 1354.39C927.78 1353.04 930.98 1353.23 934.49 1355.25L937.98 1357.26C939.97 1358.43 941.86 1360.04 943.53 1361.94Z" fill="white"/>
<path d="M941.77 1384.61L940.99 1491.94C940.91 1500.04 935.22 1503.22 928.21 1499.1L924.74 1497.06C917.79 1492.98 912.17 1483.16 912.25 1475.06L913.03 1367.73C913.11 1359.72 918.86 1356.5 925.81 1360.57L929.28 1362.61C936.3 1366.74 941.85 1376.6 941.77 1384.61Z" fill="#0C0C0F"/>
<path d="M1236.18 899.71C1229.33 903.66 1223.8 913.25 1223.82 921.12C1223.84 928.99 1229.41 932.17 1236.26 928.22C1243.11 924.27 1248.65 914.68 1248.63 906.81C1248.6 898.94 1243.03 895.76 1236.18 899.71ZM1376.71 2237.07C1377.91 2236.83 1379.04 2236.71 1380.05 2236.71C1382.02 2236.71 1383.55 2237.16 1384.31 2238.01C1385.44 2239.28 1385.44 2242.16 1384.32 2245.51C1380.9 2255.78 1368.55 2266.67 1357.88 2268.82C1354.35 2269.53 1351.44 2269.17 1350.3 2267.87C1349.18 2266.6 1349.17 2263.72 1350.29 2260.37C1353.75 2249.94 1365.86 2239.27 1376.71 2237.07Z" fill="white"/>
<path d="M1338.49 2278.32C1342.31 2282.64 1348.01 2284.93 1354.63 2284.93C1356.67 2284.93 1358.8 2284.71 1360.99 2284.27C1377.24 2280.99 1394.05 2266.16 1399.26 2250.5C1402.23 2241.58 1401.08 2233.23 1396.1 2227.59C1391.1 2221.93 1382.89 2219.76 1373.6 2221.64C1357.36 2224.92 1340.56 2239.75 1335.34 2255.41C1332.36 2264.33 1333.51 2272.68 1338.49 2278.32ZM1350.27 2260.39C1353.75 2249.94 1365.85 2239.27 1376.7 2237.08C1377.9 2236.84 1379.03 2236.72 1380.04 2236.72C1382.01 2236.72 1383.54 2237.17 1384.3 2238.02C1385.43 2239.29 1385.43 2242.17 1384.31 2245.52C1380.89 2255.79 1368.54 2266.68 1357.87 2268.83C1354.34 2269.54 1351.43 2269.18 1350.29 2267.88C1349.16 2266.61 1349.16 2263.74 1350.27 2260.39ZM652.65 1608.08C646.83 1608.08 642.09 1606.44 638.49 1603.16C632.53 1597.74 630.99 1589.12 633.91 1577.55C639.42 1555.71 659.57 1535.87 689.2 1523.12C711.7 1513.43 736.74 1509.17 758.83 1510.97C787.12 1474.97 811.3 1429.44 818.84 1379.31C825.01 1338.35 814.29 1311.96 786.98 1300.84C721.17 1395.76 634.99 1438.8 588.17 1438.8C587.99 1438.8 587.81 1438.8 587.63 1438.8C571.15 1438.68 559.18 1433.01 553.93 1422.83C549.66 1414.55 548.06 1399.71 564.67 1375.97C605.38 1317.81 712.7 1265.89 780.46 1282.28C787.23 1271.95 793.74 1261.02 799.9 1249.49C821.79 1208.53 824.56 1173.86 808.12 1146.44C760.85 1067.54 573.01 1066.57 571.11 1066.57C566.76 1066.57 563.24 1063.04 563.24 1058.7C563.24 1054.35 566.77 1050.83 571.11 1050.83C579.2 1050.83 769.76 1051.83 821.62 1138.34C841.1 1170.84 838.47 1210.74 813.78 1256.92C808.06 1267.63 802.06 1277.83 795.85 1287.54C819.13 1298.14 843.23 1323.1 834.41 1381.67C826.93 1431.37 803.78 1476.87 776.03 1513.8C796.78 1519.16 837.52 1537.93 824.53 1601.76C823.66 1606.02 819.5 1608.77 815.24 1607.9C810.98 1607.03 808.23 1602.88 809.09 1598.61C818.92 1550.29 793.34 1533.84 770.14 1528.56C768.49 1528.19 766.82 1527.86 765.14 1527.57C731.64 1567.97 693.81 1595.99 669.14 1604.75C662.94 1606.98 657.43 1608.08 652.65 1608.08ZM746.11 1526.24C703.23 1527.01 656.7 1551.61 649.18 1581.4C647.53 1587.96 648.39 1590.88 649.09 1591.51C650.09 1592.42 654.47 1593.27 663.88 1589.93C685.09 1582.39 716.74 1559.49 746.11 1526.24ZM753.22 1295.08C694.86 1295.08 612.94 1334.48 577.57 1385.01C568.26 1398.3 564.75 1409.46 567.92 1415.62C570.33 1420.28 577.55 1423 587.74 1423.07C587.89 1423.07 588.04 1423.07 588.19 1423.07C629.46 1423.07 708.96 1382.68 770.76 1296.42C765.23 1295.51 759.36 1295.08 753.22 1295.08Z" fill="#0C0C0F"/>
<path d="M2392.59 749.97L2341.78 751.16C2337.9 751.3 2334.44 748.63 2333.5 744.84C2327.78 721.91 2316.64 700.25 2301.29 682.22C2298.87 679.37 2298.64 675.27 2300.72 672.17L2333.96 622.76L2306.56 601.56L2268.07 644.98C2265.48 647.9 2261.22 648.63 2257.81 646.75C2242.09 638.09 2225.14 632.29 2207.45 629.5C2204.05 628.96 2201.33 626.39 2200.6 623.03L2186.59 558.21L2152.3 563.27L2157.02 622.3C2157.35 626.47 2154.55 630.23 2150.46 631.11C2126.54 636.25 2103.88 647.2 2084.92 662.78C2081.83 665.32 2077.37 665.31 2074.29 662.74L2033.73 628.93L2009.83 654.02L2047.86 695.42C2050.32 698.1 2050.76 702.07 2048.94 705.22C2037.32 725.34 2030.53 747.26 2028.74 770.38C2028.44 774.24 2025.52 777.39 2021.69 777.98L1961.4 787.18L1964.33 821.69L2026.47 820.56C2030.28 820.42 2033.56 822.94 2034.62 826.54C2041.01 848.23 2051.87 867.86 2066.89 884.91C2069.36 887.71 2069.66 891.81 2067.64 894.94L2034.66 946.03L2062.45 966.71L2100.88 921.68C2102.51 919.77 2104.85 918.76 2107.22 918.76C2108.54 918.76 2109.87 919.07 2111.1 919.72C2131.16 930.29 2152.82 936.21 2175.47 937.32C2179.3 937.51 2182.51 940.28 2183.24 944.05L2194.65 1002.77L2229.02 998.44L2225.47 938.32C2225.25 934.53 2227.61 931.07 2231.22 929.9C2248.31 924.35 2264.19 915.9 2278.43 904.78C2281.56 902.33 2286 902.44 2289.01 905.05L2333.93 943.94L2358.29 919.31L2316.78 872.36C2314.37 869.63 2314 865.65 2315.89 862.53C2327.53 843.26 2334.69 822.2 2337.17 799.92C2337.59 796.19 2340.44 793.2 2344.15 792.61L2395.67 784.47L2392.59 749.97ZM2192.61 892.94C2189.44 893.21 2186.28 893.34 2183.16 893.34C2126.26 893.34 2077.73 849.62 2072.83 791.92C2070.32 762.44 2079.45 733.74 2098.53 711.11C2117.61 688.48 2144.36 674.64 2173.84 672.13C2203.34 669.63 2232.03 678.75 2254.65 697.83C2277.27 716.91 2291.11 743.66 2293.61 773.15C2298.79 834.02 2253.48 887.76 2192.61 892.94Z" fill="white"/>
<path d="M2408.5 740.7C2408.11 736.33 2404.33 732.92 2400 733.12L2347.93 734.34C2341.8 713.37 2331.57 693.53 2318.02 676.33L2352.15 625.59C2354.6 621.95 2353.8 617.03 2350.34 614.35L2310.62 583.6C2307.15 580.92 2302.19 581.38 2299.28 584.66L2259.95 629.03C2245.93 622 2231.11 616.97 2215.73 614.02L2201.25 547.06C2200.32 542.77 2196.21 539.94 2191.89 540.58L2142.18 547.91C2137.84 548.55 2134.74 552.45 2135.09 556.82L2139.87 616.5C2118.23 622.15 2097.7 632.09 2079.82 645.6L2038.46 611.12C2035.09 608.31 2030.12 608.6 2027.09 611.77L1992.43 648.15C1989.4 651.33 1989.36 656.3 1992.32 659.54L2031.56 702.26C2021.54 721.11 2015.25 741.31 2012.8 762.47L1951.21 771.86C1946.87 772.52 1943.79 776.43 1944.16 780.8L1948.42 830.85C1948.79 835.17 1952.4 838.48 1956.72 838.48C1956.77 838.48 1956.82 838.48 1956.87 838.48L2020.57 837.32C2027.15 856.96 2037.13 875 2050.3 891.08L2016.45 943.52C2014.07 947.21 2014.96 952.11 2018.48 954.72L2058.78 984.71C2062.3 987.33 2067.25 986.77 2070.09 983.44L2109.34 937.45C2127.91 946.34 2147.63 951.72 2168.13 953.5L2179.81 1013.58C2180.58 1017.54 2184.05 1020.32 2187.98 1020.32C2188.33 1020.32 2188.68 1020.3 2189.03 1020.25L2238.87 1013.98C2243.22 1013.43 2246.41 1009.6 2246.15 1005.22L2242.52 943.62C2257 938.3 2270.64 931.06 2283.21 922.03L2328.95 961.63C2332.27 964.51 2337.25 964.31 2340.33 961.19L2375.65 925.48C2378.73 922.36 2378.87 917.39 2375.97 914.1L2333.28 865.81C2343.32 847.79 2349.91 828.42 2352.94 808.09L2406.01 799.71C2410.34 799.03 2413.4 795.1 2413.01 790.73L2408.5 740.7ZM2337.2 799.91C2334.72 822.19 2327.56 843.25 2315.92 862.52C2314.04 865.64 2314.4 869.62 2316.81 872.35L2358.32 919.3L2333.96 943.93L2289.04 905.04C2286.03 902.43 2281.59 902.32 2278.46 904.77C2264.22 915.88 2248.34 924.33 2231.25 929.89C2227.64 931.06 2225.28 934.52 2225.5 938.31L2229.05 998.43L2194.68 1002.76L2183.27 944.04C2182.54 940.27 2179.33 937.49 2175.5 937.31C2152.85 936.2 2131.19 930.28 2111.13 919.71C2109.9 919.06 2108.57 918.75 2107.25 918.75C2104.87 918.75 2102.54 919.77 2100.91 921.67L2062.48 966.7L2034.69 946.02L2067.67 894.93C2069.69 891.8 2069.39 887.7 2066.92 884.9C2051.89 867.85 2041.04 848.21 2034.65 826.53C2033.59 822.93 2030.32 820.41 2026.5 820.55L1964.36 821.68L1961.43 787.17L2021.72 777.97C2025.55 777.38 2028.47 774.24 2028.77 770.37C2030.56 747.26 2037.36 725.34 2048.97 705.21C2050.79 702.06 2050.35 698.09 2047.89 695.41L2009.86 654.01L2033.76 628.92L2074.32 662.73C2077.4 665.29 2081.86 665.31 2084.95 662.77C2103.9 647.19 2126.56 636.24 2150.49 631.1C2154.58 630.22 2157.38 626.46 2157.05 622.29L2152.33 563.26L2186.62 558.2L2200.63 623.02C2201.36 626.38 2204.08 628.96 2207.48 629.49C2225.17 632.28 2242.12 638.08 2257.84 646.74C2261.25 648.62 2265.51 647.89 2268.1 644.97L2306.59 601.55L2333.99 622.75L2300.75 672.16C2298.66 675.26 2298.9 679.37 2301.32 682.21C2316.67 700.25 2327.81 721.91 2333.53 744.83C2334.47 748.61 2337.93 751.29 2341.81 751.15L2392.62 749.96L2395.73 784.45L2344.21 792.59C2340.47 793.18 2337.61 796.18 2337.2 799.91Z" fill="#0C0C0F"/>
<path d="M2254.66 697.83C2232.04 678.75 2203.34 669.63 2173.85 672.13C2144.36 674.64 2117.61 688.48 2098.54 711.11C2079.46 733.74 2070.33 762.43 2072.84 791.92C2077.74 849.62 2126.27 893.35 2183.17 893.34C2186.29 893.34 2189.45 893.21 2192.62 892.94C2253.48 887.76 2298.79 834.02 2293.62 773.15C2291.12 743.66 2277.28 716.91 2254.66 697.83ZM2089.44 790.51C2087.31 765.46 2095.06 741.08 2111.27 721.86C2127.48 702.64 2150.2 690.88 2175.25 688.75C2200.3 686.63 2224.69 694.37 2243.91 710.58C2263.13 726.79 2274.88 749.51 2277 774.57C2281.4 826.28 2242.9 871.94 2191.2 876.34C2139.47 880.72 2093.83 842.22 2089.44 790.51Z" fill="#0C0C0F"/>
<path d="M941.74 1066.83L985.79 873.73C973.95 871.55 961.9 870.45 949.87 870.45C897.29 870.45 847.61 891.17 809.99 928.8C772.37 966.42 751.64 1016.1 751.64 1068.68C751.64 1121.26 772.36 1170.94 809.99 1208.56C847.62 1246.18 897.29 1266.91 949.87 1266.91C1005.37 1266.91 1057.96 1243.81 1095.43 1203.24L944.47 1075.03C942.1 1073.03 941.04 1069.86 941.74 1066.83Z" fill="white"/>
<path d="M1112.7 1196.05L959.11 1065.6L1003.93 869.14C1004.42 866.99 1004.04 864.72 1002.86 862.85C1001.68 860.98 999.81 859.65 997.66 859.16C982 855.59 965.92 853.78 949.87 853.78C892.84 853.78 838.97 876.24 798.2 917.01C757.43 957.78 734.97 1011.65 734.97 1068.68C734.97 1125.71 757.43 1179.58 798.2 1220.35C838.97 1261.12 892.84 1283.58 949.87 1283.58C1013.06 1283.58 1072.76 1255.96 1113.66 1207.8C1116.63 1204.29 1116.2 1199.03 1112.7 1196.05ZM949.86 1266.92C897.28 1266.92 847.6 1246.2 809.98 1208.57C772.36 1170.95 751.63 1121.27 751.63 1068.69C751.63 1016.11 772.35 966.43 809.98 928.81C847.61 891.19 897.28 870.46 949.86 870.46C961.89 870.46 973.94 871.56 985.78 873.74L941.73 1066.84C941.04 1069.87 942.09 1073.03 944.46 1075.04L1095.42 1203.25C1057.95 1243.81 1005.36 1266.92 949.86 1266.92Z" fill="#0C0C0F"/>
<path d="M1045.72 877.4L978.38 1048.84L1161.38 1027.9C1156.24 995.19 1142.97 964.24 1122.74 937.91C1102.5 911.59 1076 890.79 1045.72 877.4Z" fill="white"/>
<path d="M1179.06 1034.26C1174.63 995.51 1159.72 958.68 1135.95 927.75C1112.18 896.82 1080.43 872.94 1044.12 858.68C1042.07 857.87 1039.77 857.91 1037.74 858.8C1035.71 859.68 1034.12 861.33 1033.31 863.39L957.79 1055.65C956.72 1058.37 957.16 1061.46 958.94 1063.77C960.53 1065.83 962.98 1067.03 965.55 1067.03C965.86 1067.03 966.18 1067.01 966.5 1066.98L1171.72 1043.49C1176.3 1042.96 1179.58 1038.83 1179.06 1034.26ZM978.38 1048.84L1045.72 877.4C1076 890.79 1102.5 911.59 1122.73 937.91C1142.96 964.24 1156.23 995.19 1161.37 1027.9L978.38 1048.84Z" fill="#0C0C0F"/>
<path d="M1173.08 1070.39L1001.95 1078.57L1147.42 1169.08C1164.23 1139.35 1173.08 1105.79 1173.08 1071.53C1173.08 1071.14 1173.08 1070.76 1173.08 1070.39Z" fill="white"/>
<path d="M1189.5 1061.26C1189.28 1056.66 1185.32 1052.99 1180.78 1053.34L974.45 1063.2C970.81 1063.37 967.7 1065.9 966.78 1069.43C965.86 1072.96 967.35 1076.68 970.44 1078.6L1145.83 1187.72C1147.2 1188.57 1148.72 1188.98 1150.22 1188.98C1153 1188.98 1155.73 1187.59 1157.3 1185.05C1178.52 1150.95 1189.73 1111.69 1189.73 1071.52C1189.75 1068.09 1189.67 1064.64 1189.5 1061.26ZM1001.95 1078.57L1173.08 1070.39C1173.08 1070.77 1173.08 1071.14 1173.08 1071.52C1173.08 1105.79 1164.23 1139.34 1147.42 1169.07L1001.95 1078.57Z" fill="#0C0C0F"/>
<path d="M2484.01 2348.53C2481.83 2348.53 2479.66 2347.63 2478.11 2345.87C2475.23 2342.61 2475.53 2337.63 2478.79 2334.75C2479.31 2334.29 2531.2 2288.22 2578.86 2230.51C2640.65 2155.68 2667.5 2095.6 2656.5 2056.74C2648.67 2029.07 2620.7 2010.87 2573.37 2002.63C2523.55 1993.95 2479.48 2000.92 2441.82 2017.37C2418 2108.17 2369.58 2199.11 2321.98 2232.42C2303.59 2245.28 2292.58 2241.97 2286.57 2236.94C2268.4 2221.7 2280.1 2177.24 2295.64 2143.79C2320.15 2091.04 2365.34 2036.14 2428.31 2006.13C2435.25 1978.3 2439.72 1950.75 2440.9 1925.39C2443.12 1877.59 2433.39 1843.08 2412.76 1825.58C2409.44 1822.77 2409.03 1817.8 2411.85 1814.48C2414.66 1811.16 2419.64 1810.76 2422.95 1813.57C2447.45 1834.34 2459.09 1873.26 2456.64 1926.12C2455.57 1949.1 2452 1973.58 2446.45 1998.38C2484.17 1984.08 2527.55 1978.67 2576.08 1987.11C2629.88 1996.48 2662.04 2018.46 2671.66 2052.45C2701.38 2157.47 2497.91 2338.88 2489.23 2346.55C2487.73 2347.88 2485.87 2348.53 2484.01 2348.53ZM2422.73 2026.8C2369.78 2056.06 2331.45 2104.13 2309.93 2150.42C2289.71 2193.92 2291.33 2220.37 2296.69 2224.87C2299.07 2226.86 2305.45 2224.76 2312.95 2219.51C2354.9 2190.17 2398.72 2109.33 2422.73 2026.8Z" fill="#0C0C0F"/>
<path d="M1567.2 2110.39C1542.55 2089.21 1540.53 2087.49 1541.08 2081.67C1541.32 2079.08 1542.88 2076.56 1545.09 2075.17C1553.27 2069.09 1606.93 2009.75 1611.32 1973.4C1612.17 1966.33 1611.03 1961.05 1607.84 1957.27C1603.71 1952.38 1600.86 1952.2 1599.93 1952.15C1592.47 1951.68 1581.08 1962.29 1568.99 1973.51C1550.31 1990.84 1527.07 2012.41 1495.73 2017.18C1458.92 2022.79 1445.21 2006.7 1427.85 1986.35C1413.05 1969 1394.64 1947.4 1353.52 1928.93C1322.35 1914.92 1297.26 1912 1278.96 1920.24C1262.48 1927.66 1257.06 1941.91 1256.32 1944.08C1249.32 1976.88 1260.52 1997.07 1271.36 2016.6C1283.69 2038.82 1296.45 2061.8 1278.35 2097.74C1252.09 2149.9 1179.93 2406.8 1216.68 2487.2C1221.89 2498.59 1228.82 2505.24 1237.89 2507.52C1312.74 2526.38 1614.63 2532.85 1727.56 2458.56C1751.2 2443.01 1764.85 2424.81 1768.14 2404.47C1785.37 2297.77 1626.87 2161.64 1567.2 2110.39Z" fill="white"/>
<path d="M1578.06 2097.74C1571.49 2092.1 1565.16 2086.66 1561.04 2082.92C1578.97 2065.08 1620.94 2015.49 1627.38 1978.62C1629.69 1965.4 1627.4 1954.6 1620.57 1946.5C1614.78 1939.64 1608.17 1935.93 1600.93 1935.49C1586.42 1934.59 1573.06 1946.96 1557.64 1961.27C1539.75 1977.87 1519.47 1996.68 1493.2 2000.68C1465.57 2004.89 1456.67 1994.45 1440.51 1975.51C1425.47 1957.87 1404.86 1933.71 1360.33 1913.7C1324.41 1897.56 1294.6 1894.69 1271.71 1905.19C1247.37 1916.35 1240.53 1938.57 1240.25 1939.51C1240.19 1939.71 1240.14 1939.91 1240.1 1940.11C1231.59 1979.28 1244.97 2003.39 1256.77 2024.65C1268.4 2045.6 1277.58 2062.14 1263.44 2090.21C1238.44 2139.86 1161.07 2405.64 1201.5 2494.09C1208.84 2510.15 1219.71 2520.09 1233.8 2523.64C1261.79 2530.69 1322.99 2536.4 1395.79 2536.4C1419.04 2536.4 1443.48 2535.82 1468.39 2534.51C1624.65 2526.3 1700.55 2496.23 1736.7 2472.44C1764.4 2454.22 1780.51 2432.23 1784.58 2407.09C1803.31 2291.21 1639.66 2150.66 1578.06 2097.74ZM1768.12 2404.45C1764.83 2424.79 1751.18 2442.99 1727.54 2458.54C1614.61 2532.82 1312.72 2526.36 1237.87 2507.5C1228.8 2505.22 1221.86 2498.57 1216.66 2487.18C1179.91 2406.78 1252.07 2149.88 1278.33 2097.72C1296.43 2061.78 1283.67 2038.8 1271.34 2016.58C1260.5 1997.05 1249.3 1976.86 1256.3 1944.06C1257.04 1941.89 1262.46 1927.64 1278.94 1920.22C1297.24 1911.98 1322.33 1914.9 1353.5 1928.91C1394.62 1947.39 1413.04 1968.98 1427.83 1986.33C1445.19 2006.69 1458.9 2022.77 1495.71 2017.16C1527.05 2012.39 1550.29 1990.82 1568.97 1973.49C1581.06 1962.27 1592.45 1951.66 1599.91 1952.13C1600.85 1952.19 1603.69 1952.36 1607.82 1957.25C1611.01 1961.03 1612.15 1966.31 1611.3 1973.38C1606.92 2009.72 1553.26 2069.07 1545.07 2075.15C1542.86 2076.54 1541.3 2079.06 1541.06 2081.65C1540.52 2087.47 1542.53 2089.2 1567.18 2110.37C1626.87 2161.64 1785.37 2297.77 1768.12 2404.45Z" fill="#0C0C0F"/>
<path d="M1450.55 2104.49C1426.16 2104.49 1399.47 2102.67 1370.58 2099.03C1313.92 2091.88 1269.29 2079.96 1268.84 2079.84C1264.64 2078.71 1262.15 2074.39 1263.29 2070.19C1264.42 2065.99 1268.75 2063.51 1272.94 2064.63C1274.67 2065.09 1447.35 2110.84 1546.84 2074.82C1550.93 2073.34 1555.44 2075.45 1556.92 2079.54C1558.4 2083.63 1556.29 2088.14 1552.2 2089.62C1524.84 2099.53 1490.82 2104.49 1450.55 2104.49Z" fill="#0C0C0F"/>
<path d="M1432 2124.56C1412.19 2124.56 1390.93 2123.56 1368.25 2121.55C1308.81 2116.29 1261.12 2105.68 1260.64 2105.57C1256.4 2104.62 1253.73 2100.41 1254.68 2096.16C1255.63 2091.91 1259.84 2089.25 1264.09 2090.2C1265.94 2090.62 1450.7 2131.32 1548.34 2090.62C1552.35 2088.95 1556.96 2090.84 1558.64 2094.86C1560.31 2098.87 1558.42 2103.48 1554.4 2105.16C1523.44 2118.08 1482.42 2124.56 1432 2124.56Z" fill="#0C0C0F"/>
<path d="M1494.3 2123.78C1503.42 2123.78 1510.81 2116.39 1510.81 2107.27C1510.81 2098.15 1503.42 2090.76 1494.3 2090.76C1485.18 2090.76 1477.79 2098.15 1477.79 2107.27C1477.79 2116.39 1485.18 2123.78 1494.3 2123.78Z" fill="#0C0C0F"/>
<path d="M1570.24 2148.57C1551.98 2123.96 1518.85 2105.47 1501.34 2096.89C1513.06 2093.51 1534.01 2085.35 1540.91 2068.87C1545.18 2058.68 1543.4 2047.58 1535.62 2035.88C1528.71 2025.49 1521.19 2021.17 1513.23 2023.05C1505.94 2024.76 1500.35 2032.2 1496.07 2041.78C1491.24 2032.85 1482.3 2027.2 1469.35 2025.06C1457.05 2023.04 1448.75 2025.6 1444.7 2032.69C1434.95 2049.74 1461.93 2085.16 1473.98 2099.6C1475.34 2101.23 1477.31 2102.19 1479.39 2102.36C1480.04 2107.44 1481.3 2121.33 1478.09 2136.58C1472.95 2161.04 1459.05 2177.54 1436.79 2185.6C1432.7 2187.08 1430.59 2191.6 1432.07 2195.68C1433.23 2198.88 1436.25 2200.88 1439.47 2200.87C1440.36 2200.87 1441.27 2200.72 1442.15 2200.4C1490.91 2182.75 1496.35 2135.62 1495.78 2111.74C1512.32 2120 1541.89 2136.79 1557.59 2157.95C1560.18 2161.44 1565.12 2162.18 1568.6 2159.58C1572.1 2156.99 1572.83 2152.06 1570.24 2148.57ZM1516.6 2038.39C1516.62 2038.39 1518.75 2038.95 1522.51 2044.6C1527.25 2051.73 1528.53 2057.68 1526.4 2062.77C1522.94 2071.05 1511.34 2076.86 1501.7 2080.23C1505.58 2058.82 1512.17 2039.9 1516.6 2038.39ZM1458.21 2040.68C1458.22 2040.67 1459.09 2040.12 1461.76 2040.12C1463.01 2040.12 1464.65 2040.24 1466.78 2040.59C1475.23 2041.98 1480.45 2045.11 1482.73 2050.14C1486.43 2058.32 1482.77 2070.77 1478.66 2080.11C1465.65 2062.67 1456.31 2044.95 1458.21 2040.68ZM1432.53 2339.28C1427.87 2333.55 1421.27 2328.75 1412.71 2324.87C1404.15 2320.99 1393.25 2317.89 1380 2315.55C1368.83 2313.6 1360.06 2311.9 1353.67 2310.46C1347.28 2309.02 1342.15 2307.01 1338.27 2304.43C1334.39 2301.85 1332.3 2298.35 1332.02 2293.93C1331.71 2289.1 1333.96 2284.91 1338.78 2281.34C1343.6 2277.78 1349.81 2275.74 1357.41 2275.25C1364.81 2274.77 1370.74 2275.62 1375.22 2277.8C1379.69 2279.99 1383.66 2283.03 1387.11 2286.93C1391.34 2291.61 1395.04 2295.08 1398.24 2297.35C1401.43 2299.62 1405.18 2300.61 1409.5 2300.33C1415.46 2299.94 1419.95 2298.1 1422.99 2294.81C1426.02 2291.52 1427.38 2287.46 1427.07 2282.63C1426.78 2278.21 1424.97 2273.79 1421.64 2269.37C1418.31 2264.95 1413.61 2261.02 1407.56 2257.6C1401.51 2254.18 1394.07 2251.62 1385.24 2249.92C1381.41 2249.19 1377.35 2248.72 1373.13 2248.44L1372.19 2234.02C1371.66 2225.89 1364.64 2219.73 1356.51 2220.26C1348.38 2220.79 1342.22 2227.81 1342.75 2235.94L1343.66 2249.88C1334.93 2251.4 1327.22 2253.91 1320.6 2257.47C1311.08 2262.58 1304.05 2269.05 1299.51 2276.87C1294.97 2284.7 1292.97 2292.82 1293.52 2301.25C1294.14 2310.7 1297.37 2318.48 1303.24 2324.6C1309.1 2330.72 1316.71 2335.46 1326.06 2338.82C1335.41 2342.18 1347.44 2345.19 1362.16 2347.84C1375.2 2350.09 1384.63 2352.72 1390.45 2355.74C1396.27 2358.76 1399.42 2363.97 1399.9 2371.37C1400.22 2376.2 1397.8 2380.66 1392.65 2384.76C1387.5 2388.86 1380.71 2391.19 1372.29 2391.74C1361.92 2392.42 1353.6 2391.1 1347.35 2387.8C1341.1 2384.5 1335.57 2379.23 1330.77 2372.02C1328.36 2368.26 1325.9 2365.37 1323.4 2363.37C1320.9 2361.37 1317.44 2360.51 1313.02 2360.8C1307.99 2361.13 1303.93 2363.04 1300.86 2366.54C1297.79 2370.04 1296.4 2374.1 1296.7 2378.73C1297.16 2385.72 1300.18 2392.51 1305.77 2399.1C1311.36 2405.7 1319.7 2410.96 1330.78 2414.88C1337.92 2417.4 1345.91 2418.9 1354.71 2419.39L1355.46 2430.82C1355.99 2438.95 1363.01 2445.11 1371.14 2444.58C1379.27 2444.05 1385.43 2437.03 1384.9 2428.9L1384.17 2417.71C1393.94 2416.15 1402.55 2413.68 1409.94 2410.26C1420.7 2405.28 1428.64 2398.47 1433.75 2389.83C1438.86 2381.19 1441.04 2371.07 1440.28 2359.46C1439.76 2351.73 1437.18 2345.01 1432.53 2339.28ZM2407.09 1607.39L2236.64 1366.92C2234.48 1363.87 2230.54 1362.63 2227.02 1363.9L2130.89 1398.48L2023.14 1237.2C2020.94 1233.91 2016.71 1232.62 2013.05 1234.12L1865.3 1294.8L1741.56 1090.51C1739.43 1087 1735.06 1085.56 1731.27 1087.12L1582.52 1148.21C1582.4 1148.26 1582.29 1148.33 1582.18 1148.39C1581.74 1148.59 1581.33 1148.82 1580.94 1149.09C1580.78 1149.2 1580.63 1149.33 1580.48 1149.45C1580.15 1149.72 1579.84 1150 1579.55 1150.31C1579.47 1150.39 1579.38 1150.45 1579.3 1150.54L1503.06 1240.5L1478.48 1200.6C1476.34 1197.12 1471.99 1195.71 1468.22 1197.26L1319.45 1258.37C1319.29 1258.44 1319.15 1258.55 1318.99 1258.62C1318.74 1258.74 1318.5 1258.87 1318.26 1259.02C1317.92 1259.23 1317.61 1259.46 1317.31 1259.71C1317.1 1259.88 1316.9 1260.05 1316.71 1260.24C1316.41 1260.54 1316.16 1260.87 1315.91 1261.21C1315.8 1261.36 1315.66 1261.47 1315.56 1261.63L1145.74 1530.14C1144.9 1531.46 1144.46 1533 1144.45 1534.56L1144.07 1632.13C1144.07 1632.15 1144.08 1632.17 1144.08 1632.18C1144.08 1632.33 1144.11 1632.48 1144.12 1632.63C1144.14 1633.07 1144.18 1633.5 1144.27 1633.91C1144.31 1634.09 1144.38 1634.26 1144.43 1634.43C1144.54 1634.81 1144.65 1635.18 1144.81 1635.54C1144.89 1635.73 1145 1635.9 1145.09 1636.08C1145.27 1636.41 1145.45 1636.72 1145.67 1637.02C1145.73 1637.1 1145.76 1637.19 1145.83 1637.27C1145.9 1637.37 1146 1637.44 1146.08 1637.53C1146.31 1637.8 1146.56 1638.06 1146.83 1638.3C1146.99 1638.45 1147.15 1638.59 1147.32 1638.73C1147.61 1638.96 1147.92 1639.15 1148.24 1639.34C1148.41 1639.44 1148.58 1639.55 1148.76 1639.64C1149.13 1639.82 1149.52 1639.96 1149.91 1640.08C1150.06 1640.13 1150.21 1640.2 1150.36 1640.24C1150.92 1640.38 1151.49 1640.47 1152.09 1640.5L2251.2 1681.64C2251.3 1681.64 2251.41 1681.65 2251.51 1681.65C2251.51 1681.65 2251.51 1681.65 2251.52 1681.65C2252.19 1681.65 2252.85 1681.54 2253.5 1681.38C2253.69 1681.33 2253.86 1681.27 2254.05 1681.22C2254.26 1681.15 2254.48 1681.11 2254.68 1681.03L2403.45 1619.93C2405.8 1618.96 2407.58 1616.98 2408.29 1614.54C2409 1612.09 2408.56 1609.47 2407.09 1607.39Z" fill="#0C0C0F"/>
<path d="M1981.62 1477.48C1978.02 1478.77 1973.99 1477.45 1971.87 1474.27L1865.1 1314.47L1734.38 1400.86C1732.49 1402.11 1730.17 1402.53 1727.96 1402.04C1725.75 1401.54 1723.83 1400.17 1722.66 1398.23L1584.53 1170.18L1400.4 1387.46C1398.67 1389.5 1396.05 1390.57 1393.41 1390.38C1390.75 1390.18 1388.34 1388.71 1386.94 1386.44L1322.52 1281.84L1161.12 1537.03L1160.78 1624.15L2234.96 1664.36L2077.94 1442.83L1981.62 1477.48Z" fill="white"/>
</svg>
