<svg width="1080" height="220" viewBox="0 0 1080 220" fill="none" xmlns="http://www.w3.org/2000/svg">
<g clip-path="url(#clip0_2983_26744)">
<path d="M0 16C0 7.16344 7.16344 0 16 0H1064C1072.84 0 1080 7.16344 1080 16V204C1080 212.837 1072.84 220 1064 220H16C7.16342 220 0 212.837 0 204V16Z" fill="#F5FEFF"/>
<circle cx="960.5" cy="161.5" r="222.5" fill="#B4E8ED"/>
<path d="M838.5 79.085C837.956 75.3786 837.103 71.9248 835.916 68.6456C833.973 63.2852 831.26 60.011 827.846 58.9073C827.768 58.8818 827.688 58.8572 827.608 58.8343C826.543 58.5235 825.637 58.5186 824.915 58.8212C823.433 59.4427 822.859 61.3755 823.159 62.8859C823.499 64.5948 824.694 66.0724 825.818 67.2909C827.204 68.794 828.738 70.2167 830.22 71.5927C832.123 73.3598 834.092 75.1859 835.796 77.2211C836.208 77.7131 836.594 78.2133 836.957 78.7185C839.734 85.4728 842.735 94.9315 842.383 103.65C842.308 105.511 842.089 107.042 841.831 108.255C841.246 104.771 839.093 99.3144 832.178 93.0627C830.18 90.1181 828.021 87.5031 825.657 85.1587C821.608 81.1457 817.754 79.3466 814.197 79.8099C814.115 79.8205 814.033 79.832 813.951 79.846C812.854 80.0206 812.033 80.4044 811.51 80.9874C810.438 82.183 810.745 84.1764 811.663 85.4121C812.702 86.8119 814.414 87.6351 815.951 88.2559C817.847 89.0209 819.842 89.6507 821.77 90.2608C824.246 91.0431 826.807 91.8516 829.218 92.9619C829.968 93.3071 830.686 93.6826 831.371 94.0812C831.372 94.082 831.372 94.082 831.373 94.0828C830.99 94.059 830.543 94.0508 830.023 94.0689C827.877 93.6285 825.788 93.3817 823.721 93.3292C819.826 93.2308 817.067 94.1427 815.514 96.0401C815.478 96.0844 815.443 96.1279 815.408 96.173C814.945 96.7732 814.717 97.3489 814.73 97.8843C814.757 98.9815 815.843 99.8285 816.88 100.013C818.052 100.222 819.29 99.8294 820.345 99.4169C821.646 98.9093 822.934 98.2869 824.178 97.6867C825.777 96.9151 827.429 96.1172 829.148 95.5391C829.313 95.4842 829.477 95.4317 829.641 95.3817C831.845 95.2513 832.68 95.6055 832.721 95.6236C832.827 95.6777 832.942 95.6966 833.052 95.69C837.084 99.7629 838.977 103.33 839.859 105.865C841.149 109.574 840.613 111.924 840.606 111.954C840.604 111.965 840.604 111.977 840.601 111.988C840.597 112.011 840.594 112.033 840.591 112.056C840.59 112.076 840.589 112.097 840.59 112.117C840.59 112.138 840.591 112.159 840.594 112.179C840.596 112.201 840.6 112.221 840.605 112.242C840.609 112.261 840.614 112.281 840.62 112.301C840.627 112.32 840.633 112.339 840.642 112.359C840.65 112.379 840.659 112.397 840.669 112.416C840.678 112.434 840.688 112.45 840.7 112.466C840.711 112.484 840.724 112.501 840.737 112.517C840.751 112.534 840.765 112.548 840.78 112.563C840.794 112.577 840.809 112.591 840.825 112.604C840.843 112.619 840.862 112.632 840.881 112.645C840.891 112.652 840.899 112.659 840.909 112.666C840.915 112.669 840.921 112.67 840.927 112.673C840.965 112.694 841.005 112.711 841.048 112.724C841.057 112.726 841.065 112.731 841.074 112.733C841.075 112.733 841.076 112.734 841.078 112.735C841.124 112.746 841.17 112.75 841.216 112.752C841.222 112.752 841.228 112.754 841.234 112.754C841.234 112.754 841.234 112.754 841.234 112.754C841.234 112.754 841.234 112.754 841.235 112.754C841.285 112.754 841.334 112.746 841.381 112.735C841.392 112.733 841.402 112.73 841.412 112.727C841.459 112.714 841.504 112.696 841.547 112.673C841.553 112.67 841.557 112.666 841.563 112.662C841.602 112.639 841.637 112.612 841.67 112.582C841.677 112.575 841.685 112.569 841.692 112.562C841.727 112.526 841.758 112.486 841.785 112.443C841.787 112.439 841.79 112.437 841.792 112.434C841.858 112.32 843.414 109.592 843.669 103.835C844.049 95.2201 841.24 85.9361 838.5 79.085Z" fill="#0C0C0F"/>
<path d="M827.496 64.2143C828.251 64.2143 828.863 63.6023 828.863 62.8474C828.863 62.0925 828.251 61.4805 827.496 61.4805C826.741 61.4805 826.129 62.0925 826.129 62.8474C826.129 63.6023 826.741 64.2143 827.496 64.2143Z" fill="white"/>
<path d="M816.216 85.7905C816.971 85.7905 817.583 85.1785 817.583 84.4236C817.583 83.6686 816.971 83.0566 816.216 83.0566C815.461 83.0566 814.849 83.6686 814.849 84.4236C814.849 85.1785 815.461 85.7905 816.216 85.7905Z" fill="white"/>
<path d="M818.088 98.2633C818.717 98.2633 819.227 97.7534 819.227 97.1243C819.227 96.4953 818.717 95.9854 818.088 95.9854C817.459 95.9854 816.949 96.4953 816.949 97.1243C816.949 97.7534 817.459 98.2633 818.088 98.2633Z" fill="white"/>
<path d="M990.459 145.42C990.459 145.418 990.459 145.414 990.459 145.412V145.379H990.458C990.452 143.521 989.252 141.665 986.848 140.247L890.253 83.6396C885.419 80.7869 877.547 80.7885 872.682 83.6421L830.719 108.268C828.27 109.704 827.049 111.591 827.055 113.475H827.054L827.073 117.931C827.079 119.791 828.282 121.647 830.683 123.065L927.277 179.672C932.118 182.528 939.983 182.523 944.848 179.669L986.811 155.043C989.26 153.606 990.484 151.72 990.479 149.836L990.459 145.42Z" fill="#0C0C0F"/>
<path d="M943.99 173.838L986.952 148.626C989.584 147.082 989.583 143.223 986.951 141.68L889.523 84.5513C884.635 81.6854 878.616 81.6862 873.729 84.5529L867.077 88.4553C866.945 88.5332 866.836 88.6455 866.76 88.7808L863.627 94.4339C863.518 94.6307 863.359 94.7939 863.167 94.9062L850.087 102.584C849.949 102.665 849.797 102.716 849.639 102.735L841.322 103.723C841.11 103.748 840.905 103.817 840.719 103.925L829.899 110.275C827.605 111.62 827.606 114.984 829.9 116.329L927.981 173.84C932.934 176.745 939.037 176.744 943.99 173.838Z" fill="white"/>
<path d="M859.257 93.3348L850.514 98.4647C850.032 98.7476 849.98 99.1749 850.397 99.4192C850.814 99.6636 851.543 99.6332 852.025 99.3503L860.768 94.2204C861.25 93.9375 861.302 93.5103 860.885 93.266C860.467 93.0208 859.739 93.0519 859.257 93.3348ZM847.524 130.421C847.44 130.171 847.314 129.927 847.159 129.711C846.983 129.466 846.769 129.259 846.541 129.125L838.514 124.418C838.213 124.242 837.94 124.226 837.744 124.34L836.95 124.804C837.147 124.689 837.418 124.706 837.719 124.882L845.747 129.589C845.975 129.723 846.189 129.93 846.364 130.175C846.519 130.391 846.646 130.635 846.729 130.885C846.8 131.095 846.839 131.309 846.839 131.512V131.865C846.839 132.22 846.714 132.471 846.514 132.588L847.309 132.125C847.51 132.008 847.634 131.758 847.634 131.403V131.049C847.634 130.845 847.594 130.631 847.524 130.421Z" fill="white"/>
<path d="M845.747 129.589L837.719 124.881C837.112 124.528 836.627 124.816 836.628 125.531V125.884C836.628 126.591 837.113 127.453 837.72 127.806L845.748 132.514C846.348 132.863 846.839 132.571 846.839 131.864V131.511C846.839 130.797 846.346 129.939 845.747 129.589Z" fill="#0C0C0F"/>
<path d="M860.28 137.938C860.196 137.688 860.07 137.444 859.915 137.228C859.739 136.984 859.525 136.776 859.297 136.643L851.27 131.935C850.969 131.759 850.697 131.742 850.5 131.857L849.706 132.321C849.903 132.206 850.174 132.223 850.475 132.399L858.503 137.107C858.731 137.24 858.945 137.447 859.12 137.692C859.275 137.908 859.401 138.152 859.485 138.402C859.556 138.612 859.595 138.826 859.595 139.029V139.382C859.595 139.737 859.47 139.988 859.27 140.105L860.065 139.642C860.266 139.526 860.39 139.275 860.39 138.92V138.566C860.389 138.362 860.349 138.148 860.28 137.938Z" fill="white"/>
<path d="M858.502 137.105L850.474 132.398C849.867 132.044 849.382 132.333 849.383 133.047V133.401C849.383 134.108 849.868 134.969 850.475 135.323L858.503 140.03C859.103 140.38 859.594 140.088 859.594 139.381V139.028C859.595 138.313 859.102 137.456 858.502 137.105Z" fill="#0C0C0F"/>
<path d="M848.865 100.322C848.277 99.9748 847.32 99.9748 846.729 100.322C846.138 100.669 846.136 101.231 846.723 101.578C847.311 101.925 848.266 101.926 848.858 101.578C849.449 101.231 849.452 100.669 848.865 100.322ZM960.867 156.116C960.801 155.994 960.58 155.911 960.291 155.902C959.386 155.873 958.224 156.502 957.747 157.273C957.592 157.525 957.537 157.759 957.605 157.884C957.671 158.007 957.892 158.089 958.18 158.098C959.07 158.128 960.256 157.486 960.725 156.726C960.88 156.475 960.935 156.241 960.867 156.116Z" fill="white"/>
<path d="M962.005 155.505C961.713 154.962 961.104 154.636 960.332 154.611C959.837 154.596 959.303 154.704 958.791 154.905C957.914 155.249 957.099 155.865 956.648 156.595C956.239 157.258 956.173 157.95 956.467 158.496C956.758 159.039 957.368 159.364 958.139 159.389C958.171 159.39 958.204 159.39 958.238 159.39C959.569 159.39 961.127 158.534 961.824 157.404C962.232 156.743 962.298 156.051 962.005 155.505ZM958.18 158.098C957.891 158.089 957.67 158.007 957.605 157.884C957.537 157.759 957.592 157.525 957.747 157.273C958.224 156.502 959.387 155.873 960.291 155.902C960.58 155.911 960.802 155.993 960.867 156.116C960.935 156.241 960.88 156.475 960.725 156.726C960.256 157.486 959.07 158.128 958.18 158.098ZM928.164 60.8363C927.389 60.8363 926.657 60.7264 926.067 60.5984C922.858 59.9039 920.701 56.5066 919.831 50.774C919.074 45.795 919.403 39.645 920.602 34.1305C919.152 32.7349 917.608 31.4073 915.987 30.1724C912.546 27.5492 909.419 26.8013 906.692 27.9493C898.174 31.5368 895.572 51.9515 895.546 52.1574C895.503 52.5116 895.18 52.7634 894.826 52.7191C894.472 52.6756 894.22 52.3534 894.265 51.9991C894.271 51.9458 894.935 46.6388 896.696 40.9406C899.095 33.1727 902.29 28.4012 906.191 26.7587C909.375 25.4172 912.934 26.2208 916.77 29.1449C918.224 30.2535 919.621 31.4352 920.943 32.6742C922.382 26.9424 924.786 22.1109 927.895 20.352C929.315 19.5493 931.521 19.0441 934.179 20.926C934.991 19.9584 935.927 18.9572 936.989 17.9224C937.244 17.6739 937.653 17.6788 937.903 17.9339C938.152 18.1889 938.146 18.5981 937.891 18.8465C936.833 19.8773 935.941 20.8375 935.191 21.7296C939.527 25.4073 941.273 28.347 940.527 30.7078C939.514 33.9099 934.191 34.3691 933.965 34.3872L933.817 34.3986L933.68 34.3445C933.569 34.3011 930.959 33.2523 930.368 30.3446C929.887 27.9748 930.896 25.1564 933.37 21.9322C931.671 20.7456 930.083 20.5972 928.532 21.4746C925.939 22.9416 923.608 27.245 922.138 33.2818C922.103 33.4278 922.068 33.5745 922.033 33.7213C925.543 37.1965 928.478 41.0661 930.555 44.9996C933.4 50.3886 934.26 55.1504 932.915 58.0663C931.898 60.2704 929.922 60.8363 928.164 60.8363ZM921.708 35.226C920.656 40.488 920.427 46.0984 921.108 50.5797C921.556 53.5235 922.83 58.5763 926.341 59.3365C929.095 59.9326 930.913 59.3242 931.742 57.5259C932.9 55.0167 932.029 50.5592 929.413 45.6031C927.512 42.0025 924.866 38.4544 921.708 35.226ZM934.382 22.7374C931.699 26.2446 931.338 28.6029 931.63 30.0715C932.012 31.9903 933.558 32.8636 934.022 33.0858C935.428 32.939 938.699 32.2142 939.297 30.3175C939.685 29.0818 939.13 26.7726 934.382 22.7374Z" fill="#0C0C0F"/>
<path d="M887.776 114.711L896.963 109.037V96.1836L887.776 100.363V114.711Z" fill="white"/>
<path d="M880.222 110.7L886.409 114.683V100.299L880.222 96.3662V110.7Z" fill="white"/>
<path d="M881.01 95.2536L887.144 99.1519L896.125 95.0667L889.835 91.585L881.01 95.2536Z" fill="white"/>
<path d="M898.324 95.0784C898.323 95.0563 898.32 95.035 898.316 95.0137C898.31 94.9718 898.299 94.9308 898.284 94.8915C898.28 94.8808 898.276 94.8702 898.272 94.8595C898.251 94.8095 898.224 94.7636 898.193 94.7201C898.191 94.7168 898.188 94.7127 898.186 94.7094C898.138 94.6471 898.084 94.5905 898.017 94.5471C898.001 94.5364 897.982 94.5307 897.964 94.5217L890.208 90.229C890.025 90.1281 889.807 90.1158 889.615 90.1962L879.274 94.4946C879.265 94.4987 879.256 94.5036 879.247 94.5077C879.235 94.5135 879.222 94.5151 879.21 94.5217C879.204 94.5249 879.2 94.5307 879.193 94.5348C879.153 94.5577 879.117 94.5856 879.083 94.616C879.073 94.625 879.063 94.6332 879.054 94.6422C879.018 94.6783 878.986 94.7193 878.958 94.7627C878.955 94.7685 878.951 94.7734 878.948 94.7791C878.919 94.8283 878.896 94.8816 878.881 94.9374V94.9382C878.869 94.9792 878.859 95.0219 878.856 95.0653C878.853 95.1022 878.854 95.1383 878.856 95.1744V111.07C878.856 111.302 878.974 111.519 879.169 111.645L886.722 116.509C886.731 116.515 886.74 116.519 886.749 116.524C886.753 116.526 886.756 116.53 886.759 116.531C886.763 116.534 886.769 116.535 886.773 116.537C886.819 116.561 886.866 116.58 886.915 116.594C886.922 116.595 886.929 116.596 886.935 116.598C886.987 116.61 887.04 116.617 887.092 116.617C887.151 116.617 887.211 116.608 887.268 116.593C887.287 116.588 887.304 116.578 887.323 116.571C887.355 116.56 887.388 116.551 887.419 116.534C887.425 116.53 887.429 116.526 887.434 116.522C887.439 116.519 887.445 116.518 887.45 116.515L898.005 109.998C898.206 109.873 898.329 109.653 898.329 109.416V95.1194C898.33 95.1071 898.325 95.0932 898.324 95.0784ZM889.835 91.5852L896.122 95.0645L887.146 99.1481L881.016 95.2515L889.835 91.5852ZM880.222 96.3724L886.408 100.305V114.684L880.222 110.7V96.3724ZM887.776 114.711V100.367L896.964 96.1871V109.038L887.776 114.711Z" fill="#0C0C0F"/>
<path d="M998.569 45.3418C997.598 45.3418 996.79 46.0372 996.613 46.9564L967.297 51.0424C967.055 50.2134 966.291 49.6066 965.384 49.6066C964.283 49.6066 963.391 50.4996 963.391 51.6C963.391 51.796 963.42 51.9846 963.473 52.1642L933.352 66.6643C932.986 66.2231 932.434 65.9418 931.817 65.9418C931.17 65.9418 930.596 66.2518 930.231 66.7299L900.618 58.6545C900.552 57.6131 899.689 56.7882 898.63 56.7882C897.529 56.7882 896.637 57.6812 896.637 58.7816C896.637 58.9169 896.651 59.0489 896.676 59.1768L866.745 76.6945C866.395 76.3936 865.942 76.2099 865.444 76.2099C864.343 76.2099 863.451 77.1029 863.451 78.2033C863.451 79.3037 864.344 80.1967 865.444 80.1967C866.545 80.1967 867.438 79.3037 867.438 78.2033C867.438 78.068 867.424 77.9352 867.398 77.8072L897.33 60.2896C897.679 60.5905 898.133 60.7742 898.63 60.7742C899.317 60.7742 899.922 60.4273 900.28 59.8993L929.823 67.9549C929.835 69.0464 930.722 69.927 931.816 69.927C932.917 69.927 933.809 69.0341 933.809 67.9336C933.809 67.9139 933.807 67.8951 933.806 67.8762L964.236 53.2277C964.561 53.4565 964.956 53.5926 965.383 53.5926C966.217 53.5926 966.931 53.0801 967.228 52.3544L996.792 48.2339C997.12 48.8826 997.792 49.3278 998.569 49.3278C999.671 49.3278 1000.56 48.4348 1000.56 47.3344C1000.56 46.234 999.67 45.3418 998.569 45.3418Z" fill="#0C0C0F"/>
<path d="M998.569 56.79C997.468 56.79 996.576 57.683 996.576 58.7835C996.576 58.8868 996.587 58.9876 996.601 59.0869L966.733 74.748C966.378 74.4209 965.905 74.2191 965.384 74.2191C964.434 74.2191 963.641 74.8842 963.441 75.7739L933.998 79.4106C933.678 78.7373 932.993 78.2708 932.199 78.2708C931.706 78.2708 931.255 78.4503 930.907 78.7472L900.615 64.9581C900.62 64.8941 900.625 64.8301 900.625 64.7645C900.625 63.6633 899.732 62.7711 898.631 62.7711C897.837 62.7711 897.153 63.2369 896.832 63.9093L867.424 60.5465C867.31 59.5543 866.468 58.7835 865.445 58.7835C864.344 58.7835 863.452 59.6764 863.452 60.7769C863.452 61.8781 864.345 62.7703 865.445 62.7703C866.166 62.7703 866.795 62.3865 867.146 61.8142L896.684 65.1918C896.88 66.0872 897.677 66.758 898.631 66.758C899.202 66.758 899.715 66.5169 900.078 66.1323L930.245 79.864C930.219 79.9928 930.205 80.1264 930.205 80.2634C930.205 81.3646 931.098 82.2568 932.199 82.2568C933.152 82.2568 933.949 81.5868 934.145 80.6922L963.58 77.0563C963.898 77.7345 964.585 78.2052 965.384 78.2052C966.485 78.2052 967.378 77.3122 967.378 76.2117C967.378 76.0994 967.366 75.9895 967.348 75.8829L997.201 60.2299C997.558 60.5678 998.039 60.7769 998.57 60.7769C999.672 60.7769 1000.56 59.8839 1000.56 58.7835C1000.56 57.6822 999.67 56.79 998.569 56.79Z" fill="#0C0C0F"/>
<path d="M902.107 123.994L911.294 118.32V80.3535L902.107 84.5331V123.994Z" fill="white"/>
<path d="M894.553 119.981L900.74 123.966V84.4688L894.553 80.5361V119.981Z" fill="white"/>
<path d="M895.345 79.4187L901.477 83.317L910.459 79.2317L904.169 75.75L895.345 79.4187Z" fill="white"/>
<path d="M912.66 79.2781C912.659 79.2256 912.653 79.1739 912.64 79.1239C912.639 79.1206 912.638 79.1174 912.637 79.1141C912.624 79.0641 912.605 79.0165 912.58 78.9714C912.578 78.9681 912.577 78.9648 912.575 78.9607C912.551 78.9165 912.52 78.8755 912.487 78.8377C912.482 78.832 912.478 78.8263 912.472 78.8213C912.437 78.7853 912.399 78.7533 912.357 78.7254C912.353 78.7229 912.351 78.7197 912.347 78.7172C912.344 78.7147 912.34 78.7139 912.336 78.7115C912.327 78.7057 912.318 78.6992 912.308 78.6934L904.541 74.395C904.359 74.2941 904.14 74.2818 903.948 74.3622L893.607 78.6606C893.587 78.6688 893.57 78.6787 893.551 78.6885C893.548 78.6901 893.544 78.691 893.54 78.6926C893.538 78.6934 893.536 78.6951 893.535 78.6967C893.486 78.7238 893.442 78.7574 893.402 78.7951C893.398 78.7992 893.393 78.8033 893.388 78.8074C893.349 78.8451 893.317 78.8886 893.288 78.9345C893.285 78.9402 893.281 78.9452 893.277 78.9509C893.251 78.9968 893.23 79.046 893.215 79.0977C893.213 79.1051 893.211 79.1116 893.208 79.1182C893.199 79.1551 893.191 79.1936 893.188 79.2322C893.186 79.2477 893.187 79.2625 893.187 79.2781C893.187 79.2822 893.185 79.2871 893.185 79.2912V120.354C893.185 120.586 893.304 120.803 893.499 120.929L901.052 125.793C901.061 125.799 901.07 125.803 901.079 125.808C901.082 125.811 901.085 125.814 901.089 125.816C901.093 125.818 901.098 125.819 901.103 125.821C901.149 125.845 901.195 125.865 901.244 125.878C901.251 125.879 901.258 125.88 901.265 125.882C901.317 125.894 901.369 125.902 901.422 125.902C901.481 125.902 901.54 125.893 901.598 125.877C901.617 125.872 901.634 125.862 901.653 125.856C901.685 125.844 901.718 125.835 901.749 125.818C901.754 125.815 901.759 125.81 901.764 125.807C901.768 125.803 901.775 125.802 901.78 125.799L912.334 119.282C912.536 119.157 912.659 118.937 912.659 118.7V79.2912C912.661 79.2871 912.66 79.283 912.66 79.2781ZM904.169 75.7504L910.459 79.2313L901.477 83.3174L899.406 82.0013L895.344 79.4191L904.169 75.7504ZM894.553 80.536L900.739 84.4687V123.966L894.553 119.982V80.536ZM902.107 123.993V84.5335L911.295 80.3539V118.321L902.107 123.993Z" fill="#0C0C0F"/>
<path d="M917.216 133.406L926.404 127.733V97.6738L917.216 101.853V133.406Z" fill="white"/>
<path d="M909.663 129.394L915.849 133.378V101.788L909.663 97.8555V129.394Z" fill="white"/>
<path d="M910.453 96.7401L916.587 100.639L925.568 96.5532L919.278 93.0723L910.453 96.7401Z" fill="white"/>
<path d="M927.769 96.5977C927.768 96.5461 927.762 96.496 927.75 96.4468C927.748 96.4403 927.746 96.4337 927.744 96.4272C927.731 96.3837 927.715 96.3419 927.694 96.3017C927.69 96.2943 927.688 96.2861 927.683 96.2779C927.661 96.2386 927.633 96.2017 927.603 96.1672C927.594 96.1566 927.586 96.1467 927.576 96.1369C927.546 96.1057 927.512 96.0779 927.476 96.0524C927.47 96.0475 927.464 96.0409 927.457 96.036C927.451 96.0319 927.443 96.0303 927.436 96.0262C927.43 96.0229 927.425 96.018 927.418 96.0147L919.651 91.7163C919.468 91.6154 919.25 91.6031 919.058 91.6835L908.717 95.9819C908.703 95.9877 908.69 95.9959 908.676 96.0024C908.668 96.0065 908.658 96.0082 908.65 96.0123C908.645 96.0147 908.642 96.0188 908.638 96.0213C908.596 96.0459 908.557 96.0746 908.522 96.1065C908.512 96.1156 908.502 96.1229 908.493 96.132C908.459 96.1664 908.43 96.2049 908.404 96.2459C908.397 96.2558 908.392 96.2648 908.386 96.2746C908.361 96.3181 908.342 96.364 908.328 96.4124C908.325 96.4223 908.322 96.4313 908.319 96.4403C908.31 96.4772 908.302 96.5141 908.299 96.5534C908.297 96.5682 908.298 96.583 908.298 96.5969C908.298 96.6018 908.296 96.6059 908.296 96.61V129.765C908.296 129.997 908.415 130.214 908.61 130.34L916.163 135.204C916.172 135.21 916.181 135.214 916.19 135.219C916.193 135.221 916.196 135.224 916.2 135.226C916.204 135.229 916.209 135.23 916.214 135.232C916.259 135.256 916.306 135.275 916.355 135.289C916.362 135.29 916.369 135.291 916.376 135.293C916.428 135.305 916.48 135.312 916.533 135.312C916.592 135.312 916.651 135.303 916.709 135.288C916.728 135.283 916.745 135.273 916.764 135.266C916.796 135.255 916.829 135.246 916.86 135.229C916.865 135.225 916.87 135.221 916.874 135.217C916.879 135.214 916.886 135.213 916.891 135.21L927.446 128.693C927.648 128.568 927.771 128.348 927.771 128.111V96.6092C927.771 96.6067 927.769 96.6027 927.769 96.5977ZM919.278 93.0725L925.566 96.5526L916.587 100.638L910.455 96.7404L919.278 93.0725ZM909.663 97.8573L915.849 101.79V133.378L909.663 129.394V97.8573ZM917.216 133.406V101.855L926.404 97.6752V127.732L917.216 133.406Z" fill="#0C0C0F"/>
<path d="M932.69 142.832L941.878 137.158V107.1L932.69 111.279V142.832Z" fill="white"/>
<path d="M925.137 138.82L931.323 142.804V111.214L925.137 107.281V138.82Z" fill="white"/>
<path d="M925.927 106.165L932.06 110.063L941.042 105.978L934.751 102.496L925.927 106.165Z" fill="white"/>
<path d="M943.242 106.024C943.242 105.971 943.236 105.919 943.223 105.869C943.222 105.868 943.221 105.865 943.221 105.863C943.207 105.812 943.187 105.762 943.162 105.715C943.161 105.713 943.16 105.711 943.16 105.709C943.134 105.663 943.103 105.621 943.068 105.581C943.064 105.577 943.061 105.574 943.058 105.57C943.023 105.532 942.982 105.499 942.938 105.469C942.936 105.467 942.934 105.465 942.932 105.463C942.929 105.462 942.927 105.461 942.924 105.46C942.914 105.453 942.904 105.446 942.893 105.44L935.126 101.141C934.943 101.04 934.725 101.028 934.533 101.108L924.192 105.407C924.171 105.416 924.151 105.426 924.131 105.437C924.13 105.438 924.127 105.438 924.126 105.44C924.125 105.44 924.124 105.441 924.123 105.441C924.072 105.47 924.026 105.504 923.984 105.544C923.981 105.547 923.978 105.549 923.976 105.552C923.935 105.591 923.901 105.635 923.872 105.684C923.869 105.688 923.867 105.691 923.864 105.695C923.836 105.743 923.816 105.794 923.8 105.846C923.799 105.852 923.797 105.858 923.795 105.863C923.785 105.901 923.777 105.939 923.774 105.978C923.772 105.994 923.773 106.009 923.773 106.026C923.773 106.03 923.771 106.034 923.771 106.038V139.193C923.771 139.425 923.89 139.642 924.085 139.768L931.638 144.632C931.647 144.638 931.656 144.642 931.665 144.647C931.668 144.649 931.671 144.652 931.675 144.654C931.679 144.657 931.684 144.658 931.689 144.66C931.735 144.684 931.781 144.704 931.83 144.717C931.837 144.718 931.844 144.719 931.851 144.721C931.903 144.733 931.955 144.74 932.008 144.74C932.067 144.74 932.126 144.731 932.184 144.716C932.203 144.711 932.22 144.701 932.239 144.695C932.271 144.683 932.304 144.674 932.335 144.657C932.34 144.654 932.345 144.649 932.35 144.645C932.354 144.642 932.361 144.641 932.366 144.638L942.921 138.121C943.123 137.996 943.246 137.776 943.246 137.539V106.037C943.244 106.033 943.242 106.029 943.242 106.024ZM934.751 102.496L941.042 105.977L932.06 110.063L925.926 106.164L934.751 102.496ZM925.137 107.281L931.323 111.214V142.804L925.137 138.82V107.281ZM941.878 137.158L932.69 142.832V111.278L941.878 107.098V137.158Z" fill="#0C0C0F"/>
<path d="M864.657 125.247C864.439 125.247 864.226 125.137 864.104 124.937C863.92 124.632 864.016 124.235 864.322 124.049L875.791 117.093C876.096 116.908 876.493 117.005 876.678 117.31C876.863 117.615 876.766 118.012 876.461 118.197L864.991 125.154C864.886 125.217 864.771 125.247 864.657 125.247ZM877.624 135.504C877.405 135.504 877.192 135.393 877.071 135.193C876.886 134.888 876.983 134.491 877.288 134.306L892.035 125.361C892.34 125.176 892.737 125.274 892.922 125.579C893.107 125.884 893.01 126.281 892.705 126.466L877.958 135.411C877.853 135.474 877.738 135.504 877.624 135.504ZM900.303 141.375C900.085 141.375 899.872 141.265 899.75 141.064C899.566 140.759 899.663 140.363 899.968 140.177L908.462 135.024C908.767 134.84 909.164 134.937 909.349 135.242C909.534 135.547 909.437 135.944 909.132 136.129L900.638 141.282C900.533 141.345 900.417 141.375 900.303 141.375ZM911.044 152.758C910.826 152.758 910.613 152.647 910.492 152.447C910.307 152.142 910.404 151.745 910.709 151.56L923.571 143.758C923.875 143.574 924.273 143.67 924.458 143.975C924.642 144.28 924.546 144.677 924.241 144.863L911.379 152.664C911.274 152.727 911.158 152.758 911.044 152.758Z" fill="#0C0C0F"/>
<path d="M947.949 94.508C947.779 91.6626 948.868 90.1702 951.214 90.03C953.56 89.8898 954.818 91.2419 954.988 94.0873C955.158 96.9327 954.07 98.4251 951.724 98.5654C949.378 98.7056 948.12 97.3526 947.949 94.508ZM950.867 92.8327C950.795 93.1214 950.781 93.6183 950.823 94.3219C950.865 95.0254 950.939 95.5215 951.045 95.8102C951.15 96.098 951.33 96.2349 951.584 96.2193C951.838 96.2046 952.001 96.0471 952.071 95.7487C952.142 95.4502 952.156 94.9492 952.114 94.2448C952.072 93.5412 951.998 93.05 951.893 92.7712C951.788 92.4933 951.609 92.3612 951.355 92.3768C951.1 92.3916 950.937 92.5441 950.867 92.8327ZM952.142 109.99L957.796 88.8418L959.983 89.4765L954.325 110.566L952.142 109.99ZM957.202 105.523C957.032 102.678 958.12 101.185 960.466 101.045C962.813 100.905 964.071 102.257 964.241 105.102C964.411 107.948 963.323 109.44 960.977 109.58C958.631 109.721 957.373 108.368 957.202 105.523ZM960.12 103.848C960.048 104.136 960.034 104.633 960.076 105.337C960.118 106.04 960.192 106.537 960.298 106.825C960.403 107.114 960.583 107.25 960.837 107.234C961.091 107.22 961.254 107.062 961.324 106.764C961.395 106.465 961.409 105.964 961.367 105.26C961.325 104.556 961.251 104.065 961.146 103.786C961.041 103.508 960.862 103.376 960.608 103.392C960.353 103.407 960.191 103.559 960.12 103.848Z" fill="#0C0C0F"/>
<path d="M977.867 143.843C976.661 149.13 976.031 154.547 976.106 160.038C976.144 162.823 976.419 165.793 978.134 167.988C980.008 170.384 983.267 171.335 986.306 171.212C993.731 170.912 1000.01 165.035 1003 158.23C1005.98 151.426 1006.31 143.794 1006.53 136.366C1006.7 130.518 1006.83 124.591 1008.24 118.883C1008.85 116.435 1013.31 106.551 1009.9 104.927C1005.21 102.589 994.25 108.44 988.449 118.147C983.671 126.143 979.928 134.802 977.867 143.843Z" fill="#0C0C0F"/>
<path d="M1002.24 113.314C1001.91 113.13 1001.49 113.25 1001.31 113.579C993.434 127.774 989.589 142.679 987.75 152.684C987.74 152.739 987.73 152.792 987.72 152.846C986.569 147.081 985.065 134.794 990.195 124.449C990.353 124.129 990.223 123.742 989.904 123.583C989.584 123.425 989.197 123.556 989.039 123.875C985.289 131.437 985.007 139.91 985.431 145.687C985.818 150.973 986.824 154.938 987.158 156.142C985.731 165.106 985.624 171.134 985.623 171.202C985.618 171.579 985.919 171.89 986.297 171.895C986.3 171.895 986.303 171.895 986.306 171.895C986.679 171.895 986.984 171.596 986.989 171.222C986.991 171.091 987.11 165.266 988.503 156.501C988.515 156.458 988.522 156.414 988.524 156.369C989.04 153.143 989.729 149.524 990.647 145.646C992.384 145.387 997.458 143.768 1000.64 133.797C1000.74 133.457 1000.56 133.095 1000.22 132.986C999.877 132.877 999.515 133.066 999.407 133.405C996.754 141.723 992.764 143.751 990.985 144.245C993.272 134.994 996.864 124.408 1002.5 114.244C1002.69 113.912 1002.57 113.497 1002.24 113.314Z" fill="white"/>
<path d="M907.071 162.137C901.113 162.058 895.366 163.419 890.886 165.968C886.446 168.494 883.751 171.906 883.257 175.602L883.256 175.604L882.853 180.345C882.805 180.612 882.767 180.881 882.741 181.151C882.344 185.24 885.142 189.053 889.378 191.888C893.409 194.587 898.944 195.968 904.962 195.968C911.583 195.968 916.342 194.211 920.886 191.626C925.661 188.908 927.825 185.844 928.222 181.756C928.248 181.487 928.263 181.218 928.267 180.949L928.335 176.641C928.324 176.6 928.312 176.56 928.3 176.52C928.522 173.859 927.573 171.26 925.548 168.999C921.793 164.805 914.885 162.24 907.071 162.137ZM887.019 170.759C887.097 170.669 887.175 170.579 887.256 170.49C887.175 170.58 887.097 170.67 887.019 170.759ZM885.865 172.34C885.931 172.231 885.997 172.121 886.067 172.013C885.996 172.121 885.93 172.231 885.865 172.34ZM886.603 171.267C886.676 171.173 886.748 171.079 886.825 170.986C886.748 171.08 886.676 171.173 886.603 171.267ZM888.457 169.321C888.551 169.239 888.647 169.158 888.743 169.077C888.646 169.158 888.551 169.239 888.457 169.321ZM925.959 171.924C925.963 171.931 925.967 171.938 925.971 171.946C925.967 171.938 925.963 171.93 925.959 171.924ZM902.315 163.761C902.488 163.74 902.661 163.721 902.834 163.703C902.661 163.722 902.488 163.74 902.315 163.761ZM899.609 164.207C899.77 164.173 899.932 164.141 900.095 164.11C899.932 164.141 899.77 164.173 899.609 164.207ZM900.497 164.035C900.662 164.006 900.827 163.978 900.993 163.951C900.827 163.978 900.661 164.006 900.497 164.035ZM907.053 163.504C906.73 163.5 906.408 163.501 906.087 163.505C906.408 163.5 906.73 163.499 907.053 163.504ZM903.782 163.615C903.602 163.629 903.422 163.643 903.243 163.661C903.422 163.643 903.601 163.629 903.782 163.615ZM899.212 164.291C899.052 164.326 898.894 164.362 898.736 164.4C898.894 164.362 899.053 164.326 899.212 164.291ZM898.346 164.495C898.188 164.534 898.033 164.575 897.878 164.616C898.033 164.574 898.188 164.533 898.346 164.495ZM896.667 164.963C896.511 165.011 896.358 165.062 896.204 165.113C896.358 165.062 896.511 165.012 896.667 164.963ZM895.856 165.228C895.698 165.283 895.543 165.34 895.387 165.397C895.543 165.339 895.698 165.283 895.856 165.228ZM894.294 165.816C894.067 165.91 893.842 166.007 893.621 166.106C893.842 166.007 894.066 165.91 894.294 165.816ZM893.545 166.139C893.299 166.249 893.059 166.362 892.822 166.478C893.059 166.362 893.3 166.249 893.545 166.139ZM889.568 168.431C889.673 168.353 889.781 168.277 889.889 168.201C889.781 168.277 889.673 168.354 889.568 168.431ZM890.791 167.602C890.911 167.528 891.034 167.454 891.157 167.381C891.034 167.454 890.911 167.527 890.791 167.602ZM891.443 167.21C891.573 167.135 891.707 167.062 891.841 166.989C891.707 167.063 891.573 167.136 891.443 167.21ZM892.12 166.836C892.27 166.756 892.424 166.679 892.576 166.603C892.424 166.68 892.27 166.756 892.12 166.836ZM926.238 172.488C926.228 172.467 926.219 172.446 926.209 172.425C926.219 172.446 926.228 172.467 926.238 172.488ZM926.447 172.989C926.446 172.986 926.446 172.985 926.445 172.982C926.446 172.985 926.446 172.987 926.447 172.989Z" fill="#0C0C0F"/>
<path d="M924.531 169.911C921.025 165.997 914.492 163.602 907.053 163.504C896.387 163.364 887.068 168.032 884.978 174.221C884.775 174.823 884.639 175.44 884.579 176.069C884.354 178.383 885.185 180.665 886.981 182.67C890.486 186.584 897.02 188.979 904.458 189.077C916.163 189.231 926.245 183.597 926.933 176.512C927.156 174.198 926.327 171.916 924.531 169.911Z" fill="white"/>
<path d="M919.088 171.623C916.649 168.899 911.904 167.165 906.705 167.096C899.144 166.997 892.543 170.282 891.072 174.636C890.93 175.056 890.835 175.487 890.793 175.925C890.637 177.528 891.216 179.112 892.466 180.508C894.905 183.232 899.65 184.966 904.849 185.035C913.14 185.144 920.278 181.185 920.76 176.205C920.917 174.603 920.338 173.018 919.088 171.623Z" fill="white"/>
<path d="M906.723 165.73C902.419 165.673 898.265 166.657 895.026 168.501C891.691 170.398 889.705 172.988 889.433 175.794C889.24 177.787 889.937 179.733 891.448 181.421C894.175 184.465 899.179 186.328 904.832 186.402C909.135 186.459 913.29 185.475 916.529 183.631C919.226 182.096 921.042 180.109 921.78 177.919C921.955 177.403 922.07 176.874 922.122 176.338C922.315 174.345 921.618 172.399 920.107 170.711C917.379 167.666 912.376 165.804 906.723 165.73ZM904.85 185.036C899.651 184.967 894.906 183.233 892.466 180.509C891.217 179.113 890.639 177.529 890.794 175.926C890.836 175.487 890.93 175.057 891.072 174.637C892.543 170.283 899.144 166.997 906.706 167.097C911.904 167.165 916.65 168.9 919.089 171.624C920.339 173.019 920.917 174.604 920.762 176.207C920.278 181.186 913.14 185.145 904.85 185.036Z" fill="#0C0C0F"/>
<path d="M858.855 186.533C857.095 186.533 855.347 185.671 853.814 184.021C848.247 178.027 852.772 166.174 860.491 158.865C861.039 158.347 861.611 157.846 862.202 157.369C859.985 153.776 857.148 150.675 854.252 148.284C849.284 144.184 844.614 142.855 840.37 144.338C828.612 148.444 823.388 172.514 823.337 172.756C823.263 173.105 822.921 173.328 822.572 173.254C822.224 173.18 822 172.838 822.074 172.489C822.087 172.427 823.424 166.196 826.249 159.527C830.083 150.475 834.692 144.954 839.945 143.119C844.644 141.478 849.735 142.881 855.074 147.289C858.468 150.089 861.212 153.186 863.283 156.543C868.758 152.575 875.61 150.89 880.949 156.421C890.489 166.304 889.563 176.214 888.721 180.016C888.112 182.771 886.99 184.964 885.994 185.348C885.662 185.476 885.287 185.31 885.159 184.977C885.031 184.644 885.197 184.27 885.53 184.142C885.888 183.97 887.04 182.179 887.611 178.986C888.238 175.485 888.753 166.364 880.02 157.318C875.236 152.361 868.975 153.983 863.942 157.662C864.822 159.225 865.559 160.84 866.152 162.506C867.834 167.232 868.239 172.278 867.291 176.715C866.212 181.759 863.54 185.444 860.317 186.333C859.831 186.466 859.342 186.533 858.855 186.533ZM862.866 158.494C862.354 158.913 861.857 159.351 861.379 159.803C857.716 163.272 854.828 167.755 853.455 172.105C851.992 176.741 852.455 180.66 854.76 183.142C856.397 184.903 858.199 185.576 859.973 185.088C862.689 184.339 865.066 180.946 866.028 176.444C867.418 169.936 865.827 163.741 862.866 158.494Z" fill="#0C0C0F"/>
</g>
<defs>
<clipPath id="clip0_2983_26744">
<path d="M0 16C0 7.16344 7.16344 0 16 0H1064C1072.84 0 1080 7.16344 1080 16V204C1080 212.837 1072.84 220 1064 220H16C7.16342 220 0 212.837 0 204V16Z" fill="white"/>
</clipPath>
</defs>
</svg>
