<svg width="72" height="72" viewBox="0 0 72 72" fill="none" xmlns="http://www.w3.org/2000/svg">
<path d="M0 16C0 7.16344 7.16344 0 16 0H56C64.8366 0 72 7.16344 72 16V56C72 64.8366 64.8366 72 56 72H16C7.16344 72 0 64.8366 0 56V16Z" fill="#F4F5F6"/>
<path d="M62.2023 59.4134H42.6304C42.7636 59.3579 42.8993 59.3079 43.0245 59.2325L49.6375 55.2739C49.829 55.1549 50.0523 55.0915 50.2837 55.0915H52.6289V44.8658H49.5578C48.7042 44.8658 47.8666 45.1593 47.1965 45.6908C47.1168 45.7328 42.6416 48.3246 40.9959 48.3246L34.5528 48.3396C34.3345 48.3395 34.1189 48.3867 33.9209 48.478C33.7229 48.5693 33.5473 48.7024 33.4064 48.8681C33.2655 49.0339 33.1627 49.2282 33.1051 49.4375C33.0475 49.6469 33.0366 49.8662 33.073 50.0802C33.1919 50.814 33.8827 51.3233 34.6302 51.3225L41.1754 51.3685C41.2822 51.3651 41.3886 51.3831 41.4883 51.4215C41.588 51.4598 41.6789 51.5177 41.7557 51.5916C41.8325 51.6656 41.8935 51.7542 41.9352 51.852C41.9768 51.9499 41.9983 52.0551 41.9983 52.1614C41.9983 52.2677 41.9768 52.3729 41.9352 52.4708C41.8935 52.5686 41.8325 52.6572 41.7557 52.7311C41.6789 52.8051 41.588 52.863 41.4883 52.9013C41.3886 52.9396 41.2822 52.9577 41.1754 52.9543L35.0282 52.9051C34.7606 52.9032 34.4947 52.8631 34.2385 52.7861L25.1717 50.054C24.7817 49.9874 24.3805 50.0569 24.036 50.2506C23.6915 50.4443 23.4248 50.7503 23.2811 51.117C22.9221 52.0293 23.4008 53.0447 24.3261 53.3541L40.3442 59.4134H10.7977C10.5861 59.4134 10.3832 59.497 10.2336 59.6457C10.084 59.7945 10 59.9963 10 60.2067C10 60.4171 10.084 60.6189 10.2336 60.7677C10.3832 60.9164 10.5861 61 10.7977 61H62.2023C62.4139 61 62.6168 60.9164 62.7664 60.7677C62.916 60.6189 63 60.4171 63 60.2067C63 59.9963 62.916 59.7945 62.7664 59.6457C62.6168 59.497 62.4139 59.4134 62.2023 59.4134ZM14.6499 25.4139H20.3774C20.8162 25.4139 21.1751 25.0649 21.1751 24.6206V13.7603C21.1751 13.316 20.8162 12.967 20.3774 12.967H14.6499C14.2111 12.967 13.8522 13.316 13.8522 13.7603V24.6206C13.8522 25.0649 14.2111 25.4139 14.6499 25.4139ZM35.0793 12.9352V10.9916C35.0793 10.4363 34.6086 10 34.0263 10C33.5158 10 33.093 10.3332 32.9893 10.7774C32.8856 10.3332 32.4628 10 31.9522 10C31.4497 10 31.0189 10.3332 30.9232 10.7774C30.8195 10.3332 30.3887 10 29.8862 10C29.3836 10 28.9528 10.3332 28.8571 10.7774C28.7534 10.3332 28.3227 10 27.8201 10C27.2378 10 26.7591 10.4363 26.7591 10.9916V12.5624L26.7671 12.9352H35.0793ZM25.1645 12.5132V12.5449C25.2259 12.537 25.2826 12.5132 25.3456 12.5132H25.1645Z" fill="black"/>
<path d="M36.5408 23.4056C36.5393 23.0855 36.4075 22.779 36.1742 22.5532C35.941 22.3273 35.6253 22.2005 35.2962 22.2005H35.8823C36.5793 22.2005 37.1197 21.6444 37.1197 20.9899C37.1197 20.3198 36.5648 19.7801 35.8815 19.7801H37.0707C37.3999 19.7801 37.7157 19.6529 37.9485 19.4264C38.1813 19.2 38.312 18.8929 38.312 18.5726C38.312 18.2524 38.1813 17.9453 37.9485 17.7188C37.7157 17.4924 37.3999 17.3652 37.0707 17.3652H36.0036C36.7985 17.3652 37.4103 16.6372 37.2096 15.8523C37.0691 15.3056 36.5271 14.9448 35.9474 14.9448H25.2482L25.2048 13C24.658 13.0781 24.2059 13.4686 24.1056 14.0107L24.0815 14.1403C24.0397 14.3659 23.9177 14.5701 23.7369 14.7171C23.5561 14.8642 23.3279 14.9447 23.0923 14.9448H22.7936V24.6154H35.2954C35.9667 24.6154 36.54 24.0844 36.54 23.4049L36.5408 23.4056ZM37.2947 25.3816C36.7728 25.8893 36.0582 26.1783 35.2954 26.1783H23.7651C20.2804 29.9897 18 35.9255 18 40.3071C18 47.3129 23.8374 47.7269 31.0398 47.7269C38.2422 47.7269 44.0796 47.3129 44.0796 40.3071C44.0796 35.5506 41.3978 28.9822 37.4152 25.2567C37.375 25.3035 37.3349 25.3426 37.2947 25.3816ZM31.8508 41.3927L31.8588 42.1972C31.8668 42.6267 31.5135 42.986 31.0719 42.9938H31.0559C30.6223 42.9938 30.2609 42.6502 30.2529 42.2206L30.2449 41.4005C28.7514 41.0491 27.6273 39.7447 27.6273 38.1827C27.6273 37.7531 27.9886 37.4017 28.4302 37.4017C28.8799 37.4017 29.2332 37.7531 29.2332 38.1827C29.2332 39.1512 30.0441 39.94 31.0398 39.94C32.0354 39.94 32.8464 39.1512 32.8464 38.1827C32.8464 37.2142 32.0354 36.4254 31.0398 36.4254C29.1609 36.4254 27.6273 34.9414 27.6273 33.106C27.6273 31.5518 28.7353 30.2553 30.2288 29.896L30.2128 29.0915C30.2047 28.662 30.5661 28.3105 31.0077 28.3027H31.0157C31.2273 28.3027 31.4303 28.3839 31.5807 28.5287C31.731 28.6735 31.8165 28.8701 31.8186 29.0759L31.8347 29.896C33.3282 30.2396 34.4443 31.5439 34.4443 33.106C34.4443 33.5434 34.091 33.887 33.6413 33.887C33.1997 33.887 32.8384 33.5434 32.8384 33.106C32.8384 32.1453 32.0354 31.3565 31.0398 31.3565C30.0441 31.3565 29.2332 32.1453 29.2332 33.106C29.2332 34.0745 30.0441 34.8633 31.0398 34.8633C31.9442 34.8654 32.8109 35.2158 33.4505 35.8378C34.09 36.4599 34.4502 37.303 34.4523 38.1827C34.4523 39.7369 33.3362 41.0334 31.8508 41.3927ZM55.2574 57H60.1971C60.41 57 60.6142 56.9177 60.7648 56.7712C60.9154 56.6248 61 56.4261 61 56.219V43.6522C61 43.4451 60.9154 43.2464 60.7648 43.1C60.6142 42.9535 60.41 42.8712 60.1971 42.8712H55.2574C55.0444 42.8712 54.8402 42.9535 54.6896 43.1C54.539 43.2464 54.4544 43.4451 54.4544 43.6522V56.219C54.4544 56.4261 54.539 56.6248 54.6896 56.7712C54.8402 56.9177 55.0444 57 55.2574 57Z" fill="#2969D8"/>
</svg>
