<svg width="72" height="72" viewBox="0 0 72 72" fill="none" xmlns="http://www.w3.org/2000/svg">
<path d="M0 16C0 7.16344 7.16344 0 16 0H56C64.8366 0 72 7.16344 72 16V56C72 64.8366 64.8366 72 56 72H16C7.16344 72 0 64.8366 0 56V16Z" fill="#F4F5F6"/>
<path fill-rule="evenodd" clip-rule="evenodd" d="M36 12C29.6348 12 23.5303 14.5286 19.0294 19.0294C14.5286 23.5303 12 29.6348 12 36C12 42.3652 14.5286 48.4697 19.0294 52.9706C23.5303 57.4714 29.6348 60 36 60C42.3652 60 48.4697 57.4714 52.9706 52.9706C57.4714 48.4697 60 42.3652 60 36C60 29.6348 57.4714 23.5303 52.9706 19.0294C48.4697 14.5286 42.3652 12 36 12ZM22.496 21.988C22.5628 21.9869 22.6292 21.9993 22.6912 22.0243C22.7532 22.0493 22.8095 22.0865 22.8569 22.1337C22.9043 22.1809 22.9417 22.2371 22.9669 22.2989C22.9922 22.3608 23.0048 22.4272 23.004 22.494V48.996H49.504C49.6366 48.996 49.7638 49.0487 49.8576 49.1424C49.9513 49.2362 50.004 49.3634 50.004 49.496C50.004 49.6286 49.9513 49.7558 49.8576 49.8496C49.7638 49.9433 49.6366 49.996 49.504 49.996H22.634C22.548 50.019 22.4574 50.0186 22.3716 49.9948C22.2859 49.9711 22.208 49.9249 22.146 49.861C22.0791 49.7989 22.0305 49.7196 22.0055 49.6318C21.9805 49.544 21.98 49.4511 22.004 49.363V22.494C22.0024 22.3617 22.0533 22.2342 22.1455 22.1394C22.2377 22.0445 22.3637 21.9901 22.496 21.988ZM48.514 28.01C49.336 28.01 50.014 28.687 50.014 29.51C50.014 30.332 49.336 31.01 48.514 31.01C48.3171 31.0095 48.1223 30.9697 47.941 30.893L40.824 38.799C40.941 39.012 41.014 39.252 41.014 39.509C41.014 40.332 40.336 41.009 39.514 41.009C38.691 41.009 38.014 40.332 38.014 39.509C38.014 39.28 38.072 39.064 38.166 38.869L37.113 37.816C36.8406 38.2282 36.509 38.5982 36.129 38.914L36.566 40.578C36.5993 40.7046 36.5815 40.8392 36.5167 40.9529C36.4518 41.0665 36.3449 41.1502 36.219 41.186L36.457 42.092L36.73 43.131L36.96 44.014L37.158 44.762L37.538 46.197C37.6346 46.5754 37.5789 46.9766 37.383 47.3145C37.187 47.6524 36.8664 47.8999 36.49 48.004C36.4887 48.004 36.4873 48.004 36.486 48.004C36.1096 48.1038 35.709 48.0509 35.3714 47.8566C35.0339 47.6624 34.7868 47.3426 34.684 46.967L33.367 41.961L33.347 41.971C33.2832 41.9883 33.2167 41.9929 33.1511 41.9843C33.0856 41.9758 33.0224 41.9544 32.9653 41.9213C32.9081 41.8882 32.858 41.844 32.818 41.7915C32.7779 41.7389 32.7487 41.6789 32.732 41.615L32.305 39.988C31.5149 39.868 30.7655 39.5585 30.121 39.086L26.898 41.951C26.97 42.125 27.012 42.315 27.012 42.514C27.012 43.336 26.334 44.014 25.512 44.014C24.689 44.014 24.012 43.336 24.012 42.514C24.012 41.691 24.689 41.014 25.512 41.014C25.772 41.014 26.016 41.088 26.23 41.207L29.367 38.418C28.8097 37.8258 28.4071 37.1051 28.195 36.32C27.491 33.644 29.08 30.872 31.74 30.146C34.4 29.421 37.14 31.011 37.844 33.687C38.1196 34.7557 38.0363 35.8853 37.607 36.902L38.869 38.164C39.0577 38.0718 39.2638 38.021 39.4737 38.015C39.6836 38.0089 39.8924 38.0478 40.086 38.129L47.201 30.223C47.0786 30.0062 47.0132 29.7619 47.011 29.513C47.011 28.691 47.689 28.013 48.511 28.013L48.514 28.01ZM48.512 29.014C48.23 29.014 48.012 29.232 48.012 29.514C48.012 29.796 48.23 30.014 48.512 30.014C48.794 30.014 49.012 29.796 49.012 29.514C49.012 29.232 48.794 29.014 48.512 29.014ZM32.795 30.979C32.5248 30.9965 32.2571 31.0414 31.996 31.113C29.861 31.696 28.593 33.9 29.16 36.057C29.335 36.722 29.678 37.288 30.111 37.756L33.125 35.076C33.0508 34.8979 33.0124 34.7069 33.012 34.514C33.012 33.691 33.689 33.014 34.512 33.014C35.334 33.014 36.012 33.691 36.012 34.514C36.012 34.744 35.954 34.959 35.859 35.154L36.838 36.133C37.0509 35.4231 37.0648 34.6683 36.878 33.951C36.6487 33.0584 36.1158 32.2735 35.3707 31.7311C34.6256 31.1888 33.7149 30.9228 32.795 30.979ZM34.512 34.014C34.4183 34.0128 34.3261 34.0383 34.2463 34.0876C34.1666 34.1368 34.1025 34.2078 34.0617 34.2922C34.0209 34.3766 34.005 34.4709 34.0158 34.564C34.0267 34.6572 34.0638 34.7453 34.123 34.818C34.1446 34.8385 34.1644 34.861 34.182 34.885C34.269 34.963 34.382 35.014 34.512 35.014C34.794 35.014 35.012 34.796 35.012 34.514C35.012 34.232 34.794 34.014 34.512 34.014ZM33.795 35.82L30.883 38.41C31.3461 38.7083 31.8668 38.9057 32.4113 38.9894C32.9557 39.0732 33.5117 39.0413 34.043 38.896C35.0289 38.6251 35.8736 37.9871 36.404 37.113L35.152 35.861C34.953 35.9598 34.7342 36.0121 34.512 36.014C34.252 36.014 34.009 35.939 33.795 35.82ZM39.512 39.014C39.23 39.014 39.012 39.232 39.012 39.514C39.012 39.796 39.23 40.014 39.512 40.014C39.794 40.014 40.012 39.796 40.012 39.514C40.012 39.232 39.794 39.014 39.512 39.014ZM35.246 39.498C34.949 39.648 34.631 39.772 34.299 39.863C33.9879 39.9468 33.6694 40.0004 33.348 40.023L33.57 40.873L35.47 40.357L35.246 39.498ZM35.252 41.453L34.332 41.703L35.65 46.715C35.6641 46.7757 35.6907 46.8328 35.728 46.8826C35.7654 46.9325 35.8127 46.9741 35.8669 47.0047C35.9212 47.0354 35.9812 47.0544 36.0431 47.0606C36.1051 47.0669 36.1677 47.0602 36.227 47.041C36.288 47.0255 36.3454 46.9981 36.3957 46.9602C36.446 46.9224 36.4882 46.8749 36.52 46.8205C36.5517 46.7661 36.5723 46.706 36.5806 46.6436C36.5888 46.5812 36.5845 46.5177 36.568 46.457L36.189 45.02L35.992 44.271L35.762 43.391L35.488 42.351L35.252 41.453ZM25.512 42.013C25.23 42.013 25.012 42.232 25.012 42.513C25.012 42.796 25.23 43.013 25.512 43.013C25.794 43.013 26.012 42.796 26.012 42.513C26.0125 42.4469 25.9999 42.3813 25.975 42.3201C25.9502 42.2588 25.9134 42.2031 25.867 42.156C25.8201 42.1101 25.7646 42.0739 25.7037 42.0495C25.6428 42.0251 25.5776 42.0121 25.512 42.013Z" fill="#2969D8"/>
</svg>
