<svg width="72" height="72" viewBox="0 0 72 72" fill="none" xmlns="http://www.w3.org/2000/svg">
<path d="M0 16C0 7.16344 7.16344 0 16 0H56C64.8366 0 72 7.16344 72 16V56C72 64.8366 64.8366 72 56 72H16C7.16344 72 0 64.8366 0 56V16Z" fill="#F4F5F6"/>
<path d="M59.7001 47.8L57.5001 41.1C56.8001 38.9 54.8001 37.2 52.5001 36.8L51.5001 36.6L46.5001 35.8C46.4001 35 46.4001 34.1 46.5001 33.3C47.0001 32.9 47.4001 32.5 47.7001 32C48.7001 30.5 49.5001 28.6 50.0001 26.8C50.8001 26.4 51.4001 25.5 51.1001 24.1C51.0001 23.5 50.7001 23.2 50.4001 23C50.4001 22.8 50.4001 22.6 50.4001 22.4C50.4001 22.3 50.4001 22.2 50.4001 22.2C50.5001 21.8 50.7001 21.5 50.7001 21.1C50.8001 20.5 50.7001 19.9 50.7001 19.3C50.6001 18.4 50.4001 17.4 50.2001 16.5C49.8001 16 49.5001 15.4 49.0001 15.2C48.8001 15.1 48.6001 15 48.4001 14.9C48.3001 14.8 48.2001 14.7 48.1001 14.5C45.5001 11.4 41.1001 11.3 37.7001 13C35.8001 13.3 33.0001 13.5 29.4001 12.7C29.4001 12.7 29.8001 14.4 33.1001 16.1C33.1001 16.1 32.0001 17.4 30.4001 16.6C30.4001 16.6 30.7001 19.1 32.4001 20C32.4001 20.1 32.4001 20.1 32.4001 20.2C32.6001 21.2 32.8001 22.2 33.2001 23.2C32.9001 23.4 32.7001 23.6 32.6001 24.2C32.3001 25.5 33.0001 26.4 33.8001 26.8C34.3001 28.6 35.1001 30.5 36.1001 32C36.4001 32.5 36.9001 32.9 37.4001 33.3C37.4001 33.8 37.4001 35.1 37.4001 35.5C37.4001 35.6 37.4001 35.7 37.4001 35.8L34.8001 36.2C36.8001 36.2 38.5001 37.9 38.5001 39.9V45.4C38.5001 46.5 38.0001 47.6 37.2001 48.2C38.0001 48.9 38.5001 49.9 38.5001 51.1V53.4H55.7001C58.5001 53.5 60.6001 50.6 59.7001 47.8ZM37.0001 31.5C35.7001 29.5 34.8001 27.2 34.6001 25.1H34.8001C34.7001 23.7 34.7001 22.4 34.9001 21C35.0001 20.6 35.2001 20.2 35.3001 19.8C35.8001 19.3 36.6001 19.2 37.3001 19.4C39.8001 19.8 42.1001 21.2 44.6001 20.8C45.6001 20.7 46.6001 20.2 47.7001 20.3C47.9001 20.3 48.2001 20.4 48.3001 20.6C48.6001 21 48.2001 21.6 48.3001 22.1C48.3001 22.3 48.5001 22.6 48.6001 22.8C49.0001 23.5 49.3001 24.3 49.3001 25.1H49.4001C49.1001 27.3 48.2001 29.7 46.9001 31.6C46.1001 32.8 44.1001 33.9 42.9001 34.4C42.3001 34.7 41.6001 34.7 41.1001 34.4C39.6001 33.7 37.8001 32.7 37.0001 31.5ZM40.4001 38.5C38.9001 38.3 38.1001 37.8 38.1001 37.5C38.2001 37 38.3001 36.4 38.3001 35.7C38.4001 35.3 38.4001 34.5 38.4001 34.1C39.2001 34.6 40.0001 35 40.6001 35.3C41.4001 35.7 42.4001 35.7 43.3001 35.3C44.0001 35 44.7001 34.6 45.5001 34.1C45.5001 35.4 45.6001 36.3 45.7001 37.5C45.5001 38.2 43.0001 38.8 40.4001 38.5Z" fill="black"/>
<path d="M34.7001 47.3C35.7001 47.3 36.4001 46.5 36.4001 45.6V40C36.4001 39 35.6001 38.3 34.7001 38.3H13.8001C12.8001 38.3 12.1001 39.1 12.1001 40V45.5C12.1001 46.5 12.9001 47.2 13.8001 47.2H14.4001V49.4H13.8001C12.8001 49.4 12.1001 50.2 12.1001 51.1V56.6C12.1001 57.6 12.9001 58.3 13.8001 58.3H14.8001V59C14.8001 59.5 15.2001 59.9 15.7001 59.9H16.5001C17.0001 59.9 17.4001 59.5 17.4001 59V58.3H31.0001V59C31.0001 59.5 31.4001 59.9 31.9001 59.9H32.7001C33.2001 59.9 33.6001 59.5 33.6001 59V58.3H34.6001C35.6001 58.3 36.3001 57.5 36.3001 56.6V51.1C36.3001 50.1 35.5001 49.4 34.6001 49.4H34.0001V47.2H34.7001V47.3ZM26.7001 41.1C27.7001 41.1 28.6001 41.9 28.6001 43C28.6001 44 27.8001 44.9 26.7001 44.9C25.6001 44.9 24.9001 44 24.9001 43C24.9001 41.9 25.7001 41.1 26.7001 41.1ZM16.4001 49.5V47.3H32.0001V49.5H16.4001ZM26.7001 55.9C25.7001 55.9 24.8001 55.1 24.8001 54C24.8001 52.9 25.6001 52.1 26.7001 52.1C27.8001 52.1 28.6001 52.9 28.6001 54C28.6001 55.1 27.8001 55.9 26.7001 55.9ZM32.1001 55.9C31.1001 55.9 30.2001 55.1 30.2001 54C30.2001 52.9 31.0001 52.1 32.1001 52.1C33.2001 52.1 34.0001 52.9 34.0001 54C34.0001 55.1 33.1001 55.9 32.1001 55.9ZM32.1001 44.8C31.1001 44.8 30.2001 44 30.2001 42.9C30.2001 41.9 31.0001 41 32.1001 41C33.2001 41 34.0001 41.8 34.0001 42.9C33.9001 44 33.1001 44.8 32.1001 44.8Z" fill="#2969D8"/>
</svg>
