<svg width="72" height="72" viewBox="0 0 72 72" fill="none" xmlns="http://www.w3.org/2000/svg">
<path d="M0 16C0 7.16344 7.16344 0 16 0H56C64.8366 0 72 7.16344 72 16V56C72 64.8366 64.8366 72 56 72H16C7.16344 72 0 64.8366 0 56V16Z" fill="#F4F5F6"/>
<path d="M55.0194 37.5572H33.4857V15.9825C33.4862 15.8533 33.4611 15.7254 33.412 15.606C33.3629 15.4866 33.2906 15.3781 33.1995 15.2868C33.1084 15.1955 33.0001 15.1231 32.8809 15.0739C32.7617 15.0247 32.634 14.9996 32.5051 15C13.681 14.9696 2.45004 36.3693 13.1583 51.8814C22.1792 65.3817 42.8662 65.3707 51.8815 51.8613C54.5733 47.9431 56.0099 43.2963 56 38.5396C56.0004 38.4105 55.9753 38.2825 55.9262 38.1631C55.8771 38.0437 55.8049 37.9352 55.7137 37.8439C55.6226 37.7526 55.5143 37.6803 55.3951 37.631C55.276 37.5818 55.1483 37.5567 55.0194 37.5572ZM22.611 34.3347V33.5488C22.611 33.2882 22.7143 33.0383 22.8982 32.8541C23.0821 32.6698 23.3315 32.5663 23.5916 32.5663C23.8517 32.5663 24.1011 32.6698 24.285 32.8541C24.4689 33.0383 24.5722 33.2882 24.5722 33.5488V34.3347C25.3416 34.5322 26.0322 34.961 26.5511 35.5634C27.07 36.1659 27.3923 36.9131 27.4747 37.7045C27.4977 37.9615 27.4189 38.2173 27.2553 38.4166C27.0917 38.6159 26.8565 38.7428 26.6004 38.7699C26.3442 38.797 26.0878 38.7221 25.8863 38.5614C25.6848 38.4007 25.5544 38.167 25.5233 37.9109C25.4828 37.536 25.3346 37.1809 25.0968 36.8887C24.859 36.5964 24.5418 36.3794 24.1835 36.264C23.8253 36.1486 23.4413 36.1396 23.078 36.2383C22.7148 36.3369 22.3879 36.5389 22.1368 36.8198C21.8858 37.1007 21.7213 37.4485 21.6634 37.8211C21.6055 38.1937 21.6566 38.5751 21.8105 38.9192C21.9644 39.2632 22.2145 39.5553 22.5306 39.7599C22.8467 39.9646 23.2152 40.0731 23.5916 40.0723C24.5364 40.0842 25.445 40.4378 26.1501 41.0679C26.8553 41.698 27.3093 42.5622 27.4287 43.5013C27.5481 44.4403 27.3248 45.391 26.7998 46.1781C26.2749 46.9652 25.4837 47.5357 24.5721 47.7845L24.5722 48.5705C24.5682 48.8284 24.4631 49.0744 24.2796 49.2554C24.0962 49.4364 23.849 49.5378 23.5916 49.5378C23.3341 49.5378 23.087 49.4363 22.9035 49.2554C22.72 49.0744 22.615 48.8284 22.611 48.5704V47.7845C21.8203 47.5771 21.1138 47.1278 20.59 46.4991C20.0662 45.8704 19.7512 45.0937 19.6889 44.2772C19.6747 44.0189 19.7625 43.7654 19.9333 43.5714C20.1042 43.3775 20.3443 43.2586 20.6018 43.2406C20.8594 43.2225 21.1137 43.3067 21.3098 43.4749C21.5059 43.6431 21.6281 43.8819 21.65 44.1396C21.6799 44.5171 21.819 44.8776 22.0501 45.1771C22.2813 45.4767 22.5945 45.7023 22.9516 45.8263C23.3087 45.9503 23.6941 45.9674 24.0607 45.8754C24.4273 45.7835 24.7592 45.5865 25.0159 45.3086C25.2725 45.0307 25.4428 44.6839 25.5059 44.3105C25.5689 43.9372 25.522 43.5535 25.3709 43.2065C25.2198 42.8594 24.9711 42.564 24.6551 42.3563C24.3391 42.1487 23.9695 42.0378 23.5916 42.0372C22.6458 42.0292 21.7349 41.6781 21.0277 41.0488C20.3204 40.4196 19.8648 39.5549 19.7451 38.6148C19.6254 37.6748 19.8499 36.7232 20.3768 35.9362C20.9037 35.1493 21.6975 34.5803 22.611 34.3347Z" fill="black"/>
<path d="M59.7783 18.4328C57.5718 15.2163 54.6152 12.5856 51.1641 10.7678C47.7129 8.9501 43.8711 8.00012 39.9705 8C39.7133 8.00077 39.4669 8.10326 39.2851 8.2851C39.1033 8.46694 39.0008 8.71334 39 8.9705V32.0295C39.0008 32.2867 39.1033 32.5331 39.2851 32.7149C39.4669 32.8967 39.7133 32.9992 39.9705 33H63.0294C63.2866 32.9992 63.533 32.8967 63.7148 32.7149C63.8967 32.5331 63.9992 32.2867 63.9999 32.0295C64.0117 27.1729 62.5387 22.4287 59.7783 18.4328ZM49.4716 24.9352C49.8968 24.4062 50.5133 24.0662 51.1875 23.9888C51.8617 23.9115 52.5392 24.103 53.0731 24.522C53.607 24.9409 53.9542 25.5534 54.0394 26.2267C54.1246 26.9 53.9409 27.5797 53.5282 28.1184C53.1031 28.6474 52.4866 28.9874 51.8124 29.0648C51.1382 29.1421 50.4606 28.9505 49.9268 28.5316C49.3929 28.1127 49.0457 27.5001 48.9605 26.8269C48.8753 26.1536 49.0589 25.4739 49.4716 24.9352ZM47.288 26.9344C47.1663 27.1585 46.9612 27.3256 46.7172 27.3997C46.4732 27.4737 46.2098 27.4487 45.984 27.3301C45.7583 27.2115 45.5883 27.0088 45.5109 26.7658C45.4334 26.5228 45.4548 26.2591 45.5702 26.0318L50.9177 15.8028C51.0406 15.5795 51.246 15.4133 51.49 15.3396C51.734 15.266 51.9971 15.2908 52.223 15.4089C52.4489 15.5269 52.6196 15.7287 52.6985 15.971C52.7774 16.2134 52.7582 16.477 52.6451 16.7054L47.288 26.9344ZM46.2787 14.5897C46.9563 14.5984 47.6032 14.8737 48.0793 15.356C48.5554 15.8383 48.8224 16.4887 48.8224 17.1664C48.8224 17.8441 48.5554 18.4945 48.0793 18.9767C47.6032 19.459 46.9563 19.7343 46.2786 19.743C45.601 19.7343 44.9541 19.459 44.478 18.9767C44.0019 18.4944 43.735 17.844 43.735 17.1663C43.735 16.4886 44.0019 15.8382 44.4781 15.356C44.9542 14.8737 45.6011 14.5984 46.2787 14.5897Z" fill="#2969D8"/>
<path d="M46.5745 18.196C46.7283 18.1918 46.8744 18.1269 46.9817 18.0152C47.0889 17.9035 47.149 17.7538 47.149 17.598C47.149 17.4421 47.0889 17.2924 46.9817 17.1808C46.8744 17.0691 46.7283 17.0042 46.5745 17C46.4207 17.0042 46.2746 17.0691 46.1673 17.1808C46.06 17.2924 46 17.4421 46 17.598C46 17.7538 46.06 17.9035 46.1673 18.0152C46.2746 18.1269 46.4207 18.1918 46.5745 18.196ZM51.4948 26.997C51.6475 26.9745 51.7854 26.8922 51.879 26.768C51.9726 26.6437 52.0144 26.4872 51.9956 26.3321C51.9767 26.1769 51.8987 26.0354 51.7781 25.9379C51.6575 25.8403 51.5041 25.7945 51.3505 25.8101C51.1979 25.8327 51.06 25.9149 50.9664 26.0392C50.8728 26.1634 50.8309 26.3199 50.8498 26.475C50.8686 26.6302 50.9467 26.7717 51.0673 26.8692C51.1878 26.9668 51.3413 27.0126 51.4948 26.997Z" fill="black"/>
</svg>
