<svg width="716" height="220" viewBox="0 0 716 220" fill="none" xmlns="http://www.w3.org/2000/svg">
<g clip-path="url(#clip0_2971_26698)">
<path d="M0 16C0 7.16344 7.16344 0 16 0H700C708.837 0 716 7.16344 716 16V204C716 212.837 708.837 220 700 220H16C7.16345 220 0 212.837 0 204V16Z" fill="#F5FEFF"/>
<circle cx="613.5" cy="238.5" r="222.5" fill="#B4E8ED"/>
<path d="M556.104 150.936C557.532 147.473 559.197 144.329 561.145 141.437C564.33 136.708 567.758 134.19 571.337 133.948C571.42 133.943 571.503 133.938 571.586 133.935C572.694 133.892 573.575 134.107 574.202 134.576C575.488 135.539 575.577 137.554 574.918 138.945C574.174 140.521 572.655 141.664 571.269 142.573C569.559 143.695 567.726 144.703 565.954 145.678C563.679 146.93 561.326 148.224 559.178 149.784C558.659 150.161 558.163 150.553 557.688 150.955C553.356 156.834 548.148 165.281 546.372 173.824C545.994 175.649 545.835 177.187 545.789 178.425C547.203 175.187 550.616 170.417 558.841 166.031C561.495 163.659 564.224 161.647 567.087 159.946C571.988 157.036 576.164 156.227 579.503 157.54C579.58 157.57 579.657 157.601 579.733 157.634C580.753 158.069 581.456 158.641 581.823 159.333C582.573 160.753 581.791 162.612 580.6 163.588C579.253 164.693 577.391 165.076 575.749 165.305C573.724 165.587 571.636 165.713 569.617 165.837C567.025 165.996 564.344 166.158 561.736 166.65C560.924 166.803 560.137 166.993 559.375 167.213C559.374 167.213 559.374 167.214 559.374 167.214C559.751 167.284 560.186 167.385 560.687 167.529C562.876 167.623 564.962 167.891 566.98 168.342C570.782 169.192 573.237 170.746 574.283 172.964C574.307 173.015 574.33 173.066 574.353 173.119C574.656 173.814 574.738 174.428 574.596 174.943C574.303 176.001 573.044 176.56 571.994 176.487C570.806 176.405 569.701 175.723 568.777 175.067C567.638 174.259 566.54 173.343 565.478 172.458C564.115 171.321 562.705 170.146 561.178 169.168C561.032 169.075 560.885 168.984 560.738 168.896C558.631 168.235 557.735 168.375 557.692 168.383C557.575 168.409 557.461 168.4 557.354 168.366C552.454 171.339 549.752 174.339 548.281 176.584C546.129 179.869 546.079 182.278 546.078 182.309C546.078 182.322 546.075 182.332 546.075 182.344C546.073 182.367 546.072 182.389 546.067 182.412C546.064 182.432 546.059 182.452 546.054 182.472C546.049 182.492 546.043 182.512 546.035 182.532C546.028 182.551 546.02 182.571 546.01 182.59C546.001 182.608 545.991 182.626 545.981 182.643C545.97 182.661 545.958 182.678 545.946 182.694C545.934 182.71 545.92 182.727 545.906 182.742C545.892 182.757 545.878 182.771 545.863 182.784C545.848 182.798 545.831 182.812 545.814 182.824C545.797 182.837 545.78 182.848 545.762 182.859C545.744 182.869 545.727 182.879 545.708 182.888C545.688 182.897 545.666 182.906 545.644 182.914C545.633 182.918 545.623 182.924 545.612 182.927C545.605 182.929 545.599 182.928 545.593 182.929C545.551 182.94 545.507 182.947 545.463 182.949C545.454 182.95 545.445 182.951 545.436 182.951C545.434 182.951 545.433 182.952 545.431 182.952C545.384 182.952 545.337 182.945 545.293 182.935C545.287 182.933 545.281 182.934 545.275 182.933C545.275 182.933 545.275 182.933 545.275 182.933C545.274 182.933 545.275 182.933 545.274 182.933C545.225 182.921 545.18 182.902 545.137 182.879C545.127 182.874 545.118 182.869 545.108 182.864C545.066 182.839 545.026 182.811 544.991 182.778C544.986 182.774 544.982 182.769 544.978 182.765C544.946 182.733 544.918 182.698 544.893 182.661C544.887 182.653 544.882 182.645 544.876 182.636C544.851 182.593 544.83 182.547 544.815 182.498C544.814 182.494 544.812 182.491 544.81 182.487C544.774 182.361 543.926 179.338 545.077 173.69C546.804 165.242 551.783 156.917 556.104 150.936Z" fill="#0C0C0F"/>
<path d="M570.721 139.221C571.476 139.221 572.088 138.609 572.088 137.854C572.088 137.099 571.476 136.487 570.721 136.487C569.966 136.487 569.354 137.099 569.354 137.854C569.354 138.609 569.966 139.221 570.721 139.221Z" fill="white"/>
<path d="M576.426 162.891C577.18 162.891 577.792 162.279 577.792 161.524C577.792 160.769 577.18 160.157 576.426 160.157C575.671 160.157 575.059 160.769 575.059 161.524C575.059 162.279 575.671 162.891 576.426 162.891Z" fill="white"/>
<path d="M571.526 174.53C572.155 174.53 572.665 174.02 572.665 173.391C572.665 172.762 572.155 172.252 571.526 172.252C570.897 172.252 570.387 172.762 570.387 173.391C570.387 174.02 570.897 174.53 571.526 174.53Z" fill="white"/>
<path d="M482.539 156.125C485.54 160.641 488.05 165.483 489.927 170.644C490.879 173.262 491.675 176.136 490.849 178.796C489.946 181.7 487.236 183.745 484.35 184.708C477.301 187.06 469.347 183.79 464.141 178.486C458.936 173.182 455.922 166.163 453.089 159.293C450.857 153.885 448.635 148.389 445.29 143.552C443.856 141.479 436.18 133.818 438.791 131.092C442.343 127.244 454.671 128.828 463.535 135.849C470.837 141.633 477.406 148.402 482.539 156.125Z" fill="#0C0C0F"/>
<path d="M448.927 136.218C449.171 135.929 449.602 135.894 449.89 136.137C462.286 146.618 471.165 159.192 476.431 167.894C476.46 167.942 476.488 167.989 476.517 168.036C475.549 162.237 472.6 150.214 464.136 142.36C463.875 142.118 463.859 141.709 464.102 141.448C464.345 141.186 464.753 141.171 465.015 141.413C471.201 147.155 474.469 154.978 476.121 160.531C477.632 165.611 478.097 169.674 478.212 170.918C482.724 178.795 484.96 184.393 484.986 184.456C485.124 184.807 484.953 185.204 484.602 185.343C484.599 185.344 484.595 185.346 484.592 185.346C484.244 185.478 483.852 185.306 483.715 184.959C483.666 184.838 481.491 179.433 477.08 171.731C477.054 171.695 477.032 171.656 477.014 171.615C475.388 168.782 473.461 165.643 471.228 162.342C469.511 162.716 464.194 163.001 457.686 154.804C457.464 154.524 457.511 154.118 457.79 153.897C458.07 153.675 458.476 153.721 458.697 154.001C464.126 160.838 468.577 161.32 470.414 161.151C464.996 153.311 457.885 144.686 449.008 137.182C448.72 136.937 448.683 136.506 448.927 136.218Z" fill="white"/>
<path d="M535.707 25.3488C532.679 25.9991 529.942 27.3611 527.659 29.2372L522.237 24.7174L518.199 28.9552L523.244 34.4475C521.858 36.8485 520.986 39.5692 520.763 42.4483L512.842 43.6561L513.338 49.4863L521.485 49.3387C522.28 52.0382 523.652 54.4695 525.447 56.5055L521.112 63.2205L525.807 66.7145L530.874 60.7777C533.267 62.0389 535.952 62.8007 538.778 62.9384L540.281 70.6702L546.087 69.9388L545.621 62.0282C547.75 61.3361 549.704 60.2816 551.418 58.9442L557.338 64.07L561.452 59.9102L556.015 53.7602C557.406 51.4568 558.318 48.8451 558.627 46.0718L565.527 44.9821L565.001 39.1551L558.175 39.315C557.452 36.4188 556.076 33.8055 554.22 31.6251L558.599 25.1151L553.971 21.5333L548.884 27.2709C546.988 26.227 544.901 25.4997 542.701 25.1528L540.876 16.7134L535.085 17.567L535.707 25.3488ZM538.714 32.0466C545.282 31.4881 551.06 36.3606 551.616 42.9288C552.175 49.497 547.302 55.2747 540.735 55.8348C534.166 56.3924 528.388 51.5191 527.831 44.9509C527.273 38.3835 532.146 32.605 538.714 32.0466Z" fill="#0C0C0F"/>
<path d="M481.388 79.3631C481.374 74.0478 485.113 67.5821 489.733 64.9163L529.588 41.9169C531.913 40.5746 534.022 40.45 535.544 41.3347L539.106 43.4134C539.11 43.4159 539.114 43.4184 539.118 43.4208L539.141 43.4339V43.4348C540.642 44.3081 541.574 46.1621 541.581 48.8025L541.539 154.687C541.553 159.994 537.815 166.468 533.195 169.134L493.341 192.134C491.015 193.475 488.909 193.598 487.387 192.712V192.713L483.788 190.615C482.286 189.742 481.355 187.884 481.347 185.247L481.388 79.3631Z" fill="#0C0C0F"/>
<path d="M491.327 191.868L501.87 185.783L526.447 171.602L532.956 167.844C537.596 165.166 540.455 160.215 540.455 154.858L540.471 48.0449C540.471 45.1593 537.348 43.3561 534.849 44.7977L526.337 49.7095C526.25 49.7603 526.17 49.8251 526.103 49.9005L519.941 56.8476C519.874 56.9238 519.795 56.9878 519.707 57.0386L507.219 64.244C507.037 64.3489 506.825 64.3899 506.617 64.3612L502.38 63.7667C502.172 63.7372 501.96 63.779 501.778 63.884L494.047 68.3456C489.342 71.0606 486.445 76.079 486.444 81.5099L486.428 189.039C486.426 191.553 489.149 193.125 491.327 191.868Z" fill="white"/>
<path d="M518.976 56.0776L510.673 60.8705C510.215 61.1346 509.845 60.978 509.845 60.5204C509.845 60.0628 510.215 59.4782 510.673 59.2141L518.976 54.4212C519.434 54.1572 519.805 54.3138 519.805 54.7714C519.805 55.2289 519.434 55.8136 518.976 56.0776ZM483.369 98.6791C483.532 98.8644 483.67 99.0825 483.771 99.3113C483.886 99.5704 483.952 99.8427 483.952 100.093L483.951 108.894C483.95 109.223 483.834 109.455 483.649 109.563L482.896 109.999C483.082 109.891 483.198 109.66 483.199 109.33L483.2 100.529C483.201 100.279 483.134 100.007 483.019 99.7476C482.918 99.5196 482.78 99.3007 482.618 99.1153C482.481 98.9595 482.326 98.8267 482.162 98.7324L481.876 98.5676C481.588 98.4011 481.327 98.3864 481.137 98.4971L481.889 98.06C482.078 97.9493 482.34 97.9649 482.628 98.1305L482.914 98.2953C483.078 98.3913 483.233 98.5233 483.369 98.6791Z" fill="white"/>
<path d="M483.225 100.538L483.161 109.339C483.155 110.003 482.688 110.264 482.113 109.926L481.829 109.759C481.259 109.425 480.798 108.619 480.805 107.955L480.868 99.154C480.875 98.4972 481.347 98.2332 481.916 98.5669L482.201 98.7342C482.777 99.0729 483.232 99.8814 483.225 100.538Z" fill="#0C0C0F"/>
<path d="M507.367 60.7764C506.805 61.1003 506.352 61.8867 506.353 62.532C506.355 63.1773 506.812 63.4381 507.373 63.1142C507.935 62.7903 508.389 62.0039 508.388 61.3586C508.385 60.7132 507.929 60.4525 507.367 60.7764ZM518.89 170.44C518.989 170.42 519.081 170.41 519.164 170.41C519.326 170.41 519.451 170.447 519.513 170.517C519.606 170.621 519.606 170.857 519.514 171.132C519.234 171.974 518.221 172.867 517.346 173.043C517.057 173.102 516.818 173.072 516.725 172.966C516.633 172.861 516.632 172.625 516.724 172.351C517.008 171.495 518.001 170.62 518.89 170.44Z" fill="white"/>
<path d="M515.756 173.822C516.069 174.176 516.537 174.364 517.08 174.364C517.247 174.364 517.422 174.346 517.601 174.31C518.934 174.041 520.312 172.825 520.739 171.541C520.983 170.809 520.889 170.125 520.48 169.662C520.07 169.198 519.397 169.02 518.635 169.174C517.304 169.443 515.926 170.659 515.498 171.944C515.254 172.675 515.348 173.36 515.756 173.822ZM516.722 172.352C517.007 171.495 518 170.62 518.889 170.44C518.988 170.421 519.08 170.411 519.163 170.411C519.325 170.411 519.45 170.448 519.513 170.518C519.605 170.622 519.605 170.858 519.513 171.133C519.233 171.975 518.22 172.868 517.345 173.044C517.056 173.102 516.817 173.073 516.724 172.966C516.631 172.862 516.631 172.627 516.722 172.352ZM459.517 118.862C459.04 118.862 458.651 118.728 458.356 118.459C457.867 118.015 457.741 117.308 457.981 116.359C458.432 114.568 460.085 112.941 462.514 111.896C464.359 111.101 466.413 110.752 468.224 110.899C470.544 107.947 472.527 104.214 473.145 100.103C473.651 96.7446 472.772 94.5806 470.532 93.6688C465.136 101.452 458.069 104.982 454.23 104.982C454.215 104.982 454.2 104.982 454.186 104.982C452.834 104.972 451.853 104.507 451.422 103.672C451.072 102.993 450.941 101.776 452.303 99.8295C455.641 95.0603 464.441 90.8029 469.998 92.1469C470.553 91.2998 471.087 90.4036 471.592 89.4581C473.387 86.0994 473.614 83.2564 472.266 81.008C468.39 74.5382 452.987 74.4586 452.831 74.4586C452.474 74.4586 452.186 74.1692 452.186 73.8133C452.186 73.4566 452.475 73.168 452.831 73.168C453.494 73.168 469.12 73.25 473.373 80.3438C474.97 83.0088 474.755 86.2806 472.73 90.0674C472.261 90.9456 471.769 91.782 471.26 92.5782C473.169 93.4474 475.145 95.4941 474.422 100.297C473.808 104.372 471.91 108.103 469.634 111.132C471.336 111.571 474.677 113.11 473.611 118.344C473.54 118.694 473.199 118.919 472.85 118.848C472.5 118.776 472.275 118.436 472.345 118.086C473.151 114.124 471.054 112.775 469.151 112.342C469.016 112.311 468.879 112.284 468.741 112.261C465.994 115.573 462.892 117.871 460.869 118.589C460.361 118.772 459.909 118.862 459.517 118.862ZM467.181 112.152C463.665 112.215 459.849 114.232 459.233 116.675C459.097 117.213 459.168 117.452 459.225 117.504C459.307 117.578 459.667 117.648 460.438 117.374C462.177 116.756 464.773 114.878 467.181 112.152ZM467.764 93.1965C462.979 93.1965 456.261 96.4273 453.361 100.571C452.597 101.661 452.309 102.576 452.569 103.081C452.767 103.463 453.359 103.686 454.195 103.692C454.207 103.692 454.219 103.692 454.232 103.692C457.616 103.692 464.135 100.38 469.202 93.3064C468.749 93.2317 468.268 93.1965 467.764 93.1965Z" fill="#0C0C0F"/>
<path d="M602.192 48.4978L598.026 48.5953C597.708 48.6068 597.424 48.3879 597.347 48.0771C596.878 46.1968 595.965 44.4207 594.706 42.9423C594.507 42.7086 594.489 42.3724 594.659 42.1182L597.385 38.0665L595.138 36.3281L591.982 39.8886C591.769 40.128 591.42 40.1879 591.14 40.0337C589.851 39.3236 588.462 38.848 587.011 38.6192C586.732 38.5749 586.509 38.3642 586.449 38.0887L585.3 32.7734L582.489 33.1884L582.876 38.0288C582.903 38.3708 582.673 38.6791 582.338 38.7512C580.376 39.1727 578.518 40.0706 576.963 41.3482C576.71 41.5565 576.344 41.5556 576.092 41.3449L572.766 38.5725L570.806 40.6299L573.925 44.0247C574.126 44.2444 574.162 44.57 574.013 44.8283C573.06 46.4781 572.503 48.2755 572.357 50.1714C572.332 50.4879 572.093 50.7462 571.779 50.7946L566.835 51.549L567.075 54.3788L572.171 54.2861C572.483 54.2747 572.752 54.4813 572.839 54.7765C573.363 56.5551 574.253 58.1647 575.485 59.5628C575.688 59.7924 575.712 60.1286 575.547 60.3853L572.842 64.5747L575.121 66.2704L578.272 62.578C578.406 62.4214 578.598 62.3385 578.792 62.3385C578.9 62.3385 579.009 62.364 579.11 62.4173C580.755 63.284 582.531 63.7694 584.389 63.8605C584.703 63.876 584.966 64.1032 585.026 64.4123L585.961 69.2274L588.78 68.8723L588.489 63.9425C588.471 63.6317 588.664 63.348 588.96 63.252C590.361 62.7969 591.664 62.104 592.831 61.1922C593.088 60.9913 593.452 61.0003 593.699 61.2143L597.382 64.4033L599.38 62.3836L595.976 58.5337C595.778 58.3099 595.748 57.9835 595.903 57.7277C596.857 56.1475 597.445 54.4206 597.648 52.5937C597.682 52.2878 597.916 52.0426 598.22 51.9942L602.445 51.3268L602.192 48.4978ZM585.794 60.2213C585.534 60.2434 585.275 60.2541 585.019 60.2541C580.353 60.2541 576.374 56.6691 575.972 51.9377C575.766 49.5203 576.515 47.1669 578.079 45.3112C579.644 43.4556 581.838 42.3207 584.255 42.1149C586.674 41.9099 589.026 42.6577 590.881 44.2223C592.736 45.7868 593.871 47.9803 594.076 50.3985C594.501 55.3899 590.785 59.7965 585.794 60.2213Z" fill="white"/>
<path d="M603.497 47.7375C603.465 47.3792 603.155 47.0996 602.8 47.116L598.53 47.216C598.028 45.4965 597.189 43.8696 596.078 42.4592L598.876 38.2985C599.077 38 599.012 37.5966 598.728 37.3768L595.471 34.8553C595.186 34.6356 594.78 34.6733 594.541 34.9423L591.316 38.5806C590.166 38.0041 588.951 37.5917 587.69 37.3498L586.502 31.8591C586.426 31.5073 586.089 31.2752 585.735 31.3277L581.659 31.9288C581.303 31.9812 581.049 32.301 581.077 32.6594L581.469 37.5531C579.695 38.0164 578.011 38.8315 576.545 39.9393L573.154 37.112C572.877 36.8816 572.47 36.9053 572.221 37.1653L569.379 40.1484C569.131 40.4092 569.128 40.8167 569.37 41.0824L572.588 44.5855C571.766 46.1312 571.25 47.7876 571.05 49.5227L565.999 50.2927C565.643 50.3468 565.391 50.6674 565.421 51.0257L565.77 55.1298C565.801 55.4841 566.097 55.7555 566.451 55.7555C566.455 55.7555 566.459 55.7555 566.463 55.7555L571.687 55.6604C572.226 57.2709 573.045 58.7502 574.125 60.0687L571.349 64.3688C571.154 64.6714 571.227 65.0732 571.515 65.2872L574.82 67.7464C575.109 67.9612 575.514 67.9153 575.747 67.6422L578.966 63.8711C580.489 64.6 582.106 65.0412 583.787 65.1871L584.744 70.1137C584.808 70.4384 585.092 70.6664 585.414 70.6664C585.443 70.6664 585.472 70.6647 585.5 70.6607L589.587 70.1465C589.944 70.1014 590.206 69.7873 590.184 69.4282L589.887 64.377C591.074 63.9408 592.192 63.3471 593.223 62.6066L596.974 65.8538C597.246 66.09 597.654 66.0736 597.907 65.8177L600.803 62.8895C601.056 62.6337 601.067 62.2261 600.83 61.9563L597.329 57.9966C598.152 56.5189 598.693 54.9306 598.941 53.2635L603.293 52.5764C603.648 52.5206 603.899 52.1983 603.867 51.84L603.497 47.7375ZM597.65 52.5928C597.447 54.4197 596.86 56.1467 595.905 57.7268C595.751 57.9826 595.781 58.309 595.978 58.5328L599.382 62.3827L597.385 64.4024L593.701 61.2134C593.454 60.9994 593.09 60.9904 592.834 61.1913C591.666 62.1023 590.364 62.7952 588.962 63.2511C588.666 63.3471 588.473 63.6308 588.491 63.9416L588.782 68.8714L585.964 69.2265L585.028 64.4114C584.968 64.1023 584.705 63.8743 584.391 63.8596C582.534 63.7686 580.758 63.2831 579.113 62.4164C579.012 62.3631 578.903 62.3377 578.794 62.3377C578.599 62.3377 578.408 62.4213 578.275 62.5771L575.123 66.2696L572.845 64.5738L575.549 60.3844C575.715 60.1277 575.69 59.7916 575.487 59.562C574.255 58.1639 573.365 56.5534 572.841 54.7756C572.754 54.4804 572.486 54.2738 572.173 54.2852L567.078 54.3779L566.837 51.5481L571.781 50.7937C572.095 50.7453 572.335 50.4878 572.359 50.1705C572.506 48.2755 573.064 46.478 574.016 44.8274C574.165 44.5691 574.129 44.2435 573.927 44.0238L570.809 40.629L572.768 38.5716L576.094 41.344C576.347 41.5539 576.713 41.5556 576.966 41.3473C578.52 40.0697 580.378 39.1718 582.34 38.7503C582.676 38.6782 582.905 38.3699 582.878 38.0279L582.491 33.1875L585.303 32.7725L586.452 38.0878C586.511 38.3633 586.735 38.5749 587.013 38.6183C588.464 38.8471 589.854 39.3227 591.143 40.0328C591.422 40.187 591.772 40.1271 591.984 39.8877L595.14 36.3272L597.387 38.0656L594.661 42.1173C594.49 42.3715 594.51 42.7085 594.708 42.9414C595.967 44.4206 596.88 46.1968 597.349 48.0762C597.427 48.3862 597.71 48.6059 598.028 48.5944L602.195 48.4969L602.45 51.325L598.225 51.9925C597.919 52.0409 597.684 52.2869 597.65 52.5928Z" fill="#0C0C0F"/>
<path d="M590.882 44.2222C589.027 42.6576 586.674 41.9098 584.256 42.1148C581.838 42.3206 579.644 43.4555 578.08 45.3112C576.516 47.1668 575.767 49.5194 575.973 51.9376C576.375 56.669 580.354 60.2548 585.02 60.254C585.276 60.254 585.535 60.2434 585.795 60.2212C590.785 59.7965 594.501 55.3898 594.077 50.3984C593.872 47.9803 592.737 45.7868 590.882 44.2222ZM577.334 51.822C577.159 49.7679 577.795 47.7687 579.124 46.1927C580.453 44.6166 582.316 43.6523 584.371 43.4776C586.425 43.3038 588.425 43.9385 590.001 45.2677C591.577 46.5969 592.54 48.46 592.714 50.5149C593.075 54.7551 589.918 58.4992 585.678 58.86C581.437 59.2192 577.694 56.0622 577.334 51.822Z" fill="#0C0C0F"/>
<path d="M483.223 74.4796L486.835 58.6454C485.864 58.4667 484.876 58.3765 483.889 58.3765C479.578 58.3765 475.504 60.0755 472.419 63.1612C469.334 66.246 467.635 70.3198 467.635 74.6313C467.635 78.9429 469.334 83.0166 472.419 86.1015C475.505 89.1863 479.578 90.8862 483.889 90.8862C488.44 90.8862 492.753 88.992 495.825 85.6652L483.447 75.152C483.252 74.988 483.165 74.7281 483.223 74.4796Z" fill="white"/>
<path d="M497.241 85.0759L484.647 74.379L488.322 58.2693C488.362 58.093 488.331 57.9068 488.235 57.7535C488.138 57.6002 487.984 57.4911 487.808 57.4509C486.524 57.1582 485.205 57.0098 483.889 57.0098C479.213 57.0098 474.796 58.8515 471.452 62.1946C468.109 65.5378 466.268 69.9551 466.268 74.6316C466.268 79.308 468.109 83.7254 471.452 87.0685C474.796 90.4116 479.213 92.2534 483.889 92.2534C489.071 92.2534 493.966 89.9885 497.32 86.0394C497.564 85.7516 497.528 85.3203 497.241 85.0759ZM483.889 90.8872C479.577 90.8872 475.503 89.1882 472.418 86.1025C469.334 83.0177 467.634 78.9439 467.634 74.6324C467.634 70.3208 469.333 66.2471 472.418 63.1622C475.504 60.0774 479.577 58.3775 483.889 58.3775C484.875 58.3775 485.863 58.4677 486.834 58.6465L483.222 74.4807C483.165 74.7291 483.251 74.9883 483.446 75.1531L495.824 85.6663C492.752 88.9922 488.44 90.8872 483.889 90.8872Z" fill="#0C0C0F"/>
<path d="M491.749 58.9468L486.227 73.0049L501.233 71.2878C500.812 68.6056 499.723 66.0677 498.065 63.9086C496.405 61.7504 494.232 60.0448 491.749 58.9468Z" fill="white"/>
<path d="M502.683 71.8093C502.32 68.6318 501.097 65.6117 499.148 63.0755C497.199 60.5392 494.595 58.581 491.618 57.4117C491.45 57.3453 491.261 57.3486 491.095 57.4216C490.928 57.4937 490.798 57.629 490.731 57.798L484.539 73.5633C484.451 73.7863 484.487 74.0397 484.633 74.2291C484.763 74.398 484.964 74.4964 485.175 74.4964C485.2 74.4964 485.227 74.4948 485.253 74.4923L502.081 72.5661C502.457 72.5227 502.726 72.184 502.683 71.8093ZM486.227 73.0048L491.749 58.9468C494.232 60.0448 496.405 61.7503 498.064 63.9086C499.723 66.0676 500.811 68.6055 501.232 71.2878L486.227 73.0048Z" fill="#0C0C0F"/>
<path d="M502.193 74.772L488.16 75.4427L500.088 82.8645C501.467 80.4267 502.193 77.6748 502.193 74.8655C502.193 74.8335 502.193 74.8023 502.193 74.772Z" fill="white"/>
<path d="M503.539 74.0234C503.521 73.6462 503.196 73.3453 502.824 73.374L485.905 74.1825C485.606 74.1964 485.351 74.4039 485.276 74.6934C485.201 74.9828 485.323 75.2878 485.576 75.4453L499.958 84.3931C500.07 84.4628 500.195 84.4964 500.318 84.4964C500.546 84.4964 500.77 84.3825 500.899 84.1742C502.639 81.378 503.558 78.1587 503.558 74.8647C503.56 74.5835 503.553 74.3006 503.539 74.0234ZM488.16 75.4428L502.193 74.7721C502.193 74.8032 502.193 74.8336 502.193 74.8647C502.193 77.6749 501.467 80.426 500.088 82.8638L488.16 75.4428Z" fill="#0C0C0F"/>
<path d="M609.689 179.58C609.51 179.58 609.332 179.506 609.205 179.362C608.969 179.094 608.993 178.686 609.261 178.45C609.303 178.412 613.558 174.634 617.467 169.902C622.533 163.766 624.735 158.839 623.833 155.653C623.191 153.384 620.897 151.892 617.016 151.216C612.931 150.504 609.317 151.076 606.229 152.425C604.276 159.87 600.306 167.327 596.402 170.059C594.894 171.113 593.992 170.842 593.499 170.429C592.009 169.18 592.968 165.534 594.242 162.791C596.252 158.465 599.958 153.964 605.121 151.503C605.69 149.221 606.057 146.962 606.154 144.882C606.336 140.963 605.538 138.133 603.846 136.698C603.574 136.467 603.54 136.06 603.772 135.788C604.002 135.515 604.41 135.482 604.682 135.713C606.691 137.416 607.645 140.607 607.444 144.942C607.357 146.826 607.064 148.834 606.609 150.867C609.702 149.695 613.259 149.251 617.239 149.943C621.65 150.712 624.287 152.514 625.076 155.301C627.513 163.913 610.829 178.788 610.117 179.417C609.994 179.526 609.841 179.58 609.689 179.58ZM604.664 153.198C600.322 155.597 597.179 159.539 595.414 163.335C593.756 166.902 593.889 169.071 594.329 169.44C594.524 169.603 595.047 169.43 595.662 169C599.102 166.594 602.695 159.965 604.664 153.198Z" fill="#0C0C0F"/>
<path d="M534.51 160.052C532.489 158.315 532.323 158.174 532.369 157.697C532.388 157.484 532.516 157.278 532.697 157.164C533.368 156.665 537.768 151.799 538.128 148.819C538.198 148.239 538.104 147.806 537.843 147.496C537.504 147.095 537.27 147.08 537.194 147.076C536.583 147.037 535.649 147.908 534.657 148.828C533.125 150.249 531.22 152.017 528.65 152.409C525.631 152.869 524.507 151.549 523.084 149.88C521.87 148.458 520.36 146.687 516.989 145.172C514.433 144.023 512.375 143.784 510.875 144.459C509.523 145.068 509.079 146.236 509.018 146.414C508.444 149.104 509.363 150.759 510.251 152.361C511.263 154.183 512.309 156.067 510.825 159.014C508.671 163.292 502.754 184.357 505.768 190.95C506.195 191.884 506.763 192.429 507.507 192.616C513.645 194.163 538.4 194.693 547.66 188.602C549.598 187.327 550.718 185.834 550.987 184.166C552.4 175.417 539.403 164.254 534.51 160.052Z" fill="white"/>
<path d="M535.401 159.015C534.862 158.552 534.343 158.106 534.005 157.799C535.475 156.336 538.917 152.27 539.445 149.247C539.635 148.163 539.447 147.277 538.887 146.613C538.412 146.05 537.87 145.746 537.276 145.71C536.086 145.636 534.991 146.651 533.726 147.824C532.259 149.185 530.596 150.728 528.442 151.056C526.177 151.401 525.447 150.545 524.122 148.992C522.888 147.545 521.198 145.564 517.547 143.923C514.602 142.6 512.157 142.364 510.28 143.225C508.284 144.141 507.723 145.963 507.7 146.04C507.696 146.056 507.691 146.072 507.688 146.089C506.99 149.301 508.087 151.278 509.055 153.021C510.009 154.739 510.761 156.095 509.602 158.397C507.552 162.468 501.208 184.262 504.523 191.515C505.125 192.832 506.016 193.647 507.172 193.938C509.467 194.516 514.485 194.985 520.455 194.985C522.361 194.985 524.365 194.937 526.408 194.83C539.221 194.156 545.445 191.691 548.409 189.74C550.681 188.246 552.002 186.443 552.335 184.381C553.871 174.879 540.452 163.354 535.401 159.015ZM550.986 184.165C550.716 185.833 549.597 187.325 547.658 188.6C538.398 194.691 513.643 194.161 507.505 192.615C506.762 192.428 506.192 191.883 505.766 190.949C502.753 184.356 508.67 163.29 510.823 159.013C512.307 156.066 511.261 154.181 510.25 152.359C509.361 150.758 508.443 149.102 509.017 146.413C509.077 146.235 509.522 145.066 510.873 144.458C512.374 143.782 514.431 144.022 516.987 145.17C520.359 146.686 521.869 148.456 523.082 149.879C524.506 151.548 525.63 152.867 528.648 152.407C531.218 152.016 533.124 150.247 534.655 148.826C535.647 147.906 536.581 147.036 537.193 147.074C537.27 147.079 537.503 147.093 537.841 147.494C538.103 147.804 538.196 148.237 538.127 148.817C537.767 151.797 533.367 156.664 532.696 157.162C532.514 157.276 532.387 157.483 532.367 157.695C532.323 158.172 532.487 158.314 534.509 160.05C539.403 164.254 552.4 175.417 550.986 184.165Z" fill="#0C0C0F"/>
<path d="M524.945 159.568C522.945 159.568 520.757 159.419 518.388 159.12C513.741 158.534 510.082 157.556 510.045 157.547C509.701 157.454 509.496 157.1 509.59 156.755C509.682 156.411 510.038 156.208 510.381 156.299C510.523 156.337 524.683 160.089 532.841 157.135C533.176 157.014 533.546 157.187 533.667 157.522C533.789 157.857 533.616 158.227 533.28 158.349C531.037 159.161 528.247 159.568 524.945 159.568Z" fill="#0C0C0F"/>
<path d="M523.424 161.214C521.8 161.214 520.056 161.132 518.197 160.967C513.322 160.536 509.412 159.666 509.372 159.657C509.025 159.579 508.806 159.234 508.884 158.885C508.962 158.537 509.307 158.319 509.655 158.397C509.807 158.431 524.957 161.768 532.964 158.431C533.293 158.294 533.671 158.449 533.808 158.779C533.945 159.108 533.79 159.486 533.461 159.623C530.922 160.683 527.558 161.214 523.424 161.214Z" fill="#0C0C0F"/>
<path d="M528.533 161.15C529.28 161.15 529.886 160.544 529.886 159.796C529.886 159.049 529.28 158.442 528.533 158.442C527.785 158.442 527.179 159.049 527.179 159.796C527.179 160.544 527.785 161.15 528.533 161.15Z" fill="#0C0C0F"/>
<path d="M534.76 163.183C533.262 161.164 530.546 159.648 529.11 158.945C530.071 158.668 531.789 157.998 532.355 156.647C532.705 155.812 532.559 154.901 531.921 153.942C531.354 153.09 530.738 152.736 530.085 152.89C529.487 153.03 529.029 153.64 528.678 154.426C528.282 153.693 527.549 153.23 526.487 153.055C525.478 152.889 524.797 153.099 524.465 153.68C523.666 155.078 525.878 157.983 526.866 159.167C526.978 159.301 527.139 159.379 527.31 159.393C527.363 159.81 527.467 160.949 527.203 162.199C526.782 164.205 525.642 165.558 523.817 166.219C523.481 166.34 523.308 166.711 523.43 167.046C523.525 167.308 523.772 167.472 524.037 167.471C524.11 167.471 524.184 167.459 524.256 167.433C528.255 165.985 528.701 162.121 528.654 160.162C530.01 160.84 532.435 162.217 533.722 163.952C533.935 164.238 534.34 164.299 534.625 164.085C534.912 163.873 534.972 163.469 534.76 163.183ZM530.361 154.148C530.363 154.148 530.537 154.194 530.846 154.657C531.234 155.242 531.339 155.73 531.165 156.147C530.881 156.826 529.93 157.302 529.139 157.579C529.458 155.823 529.998 154.272 530.361 154.148ZM525.573 154.336C525.574 154.335 525.645 154.29 525.864 154.29C525.967 154.29 526.101 154.299 526.276 154.328C526.969 154.442 527.397 154.699 527.584 155.111C527.887 155.782 527.587 156.803 527.25 157.569C526.183 156.139 525.417 154.686 525.573 154.336ZM523.467 178.821C523.085 178.351 522.544 177.957 521.842 177.639C521.14 177.321 520.246 177.067 519.16 176.875C518.244 176.715 517.525 176.576 517.001 176.457C516.477 176.339 516.056 176.175 515.738 175.963C515.42 175.751 515.249 175.464 515.226 175.102C515.2 174.706 515.385 174.362 515.78 174.07C516.175 173.778 516.684 173.61 517.308 173.57C517.914 173.531 518.401 173.601 518.768 173.779C519.135 173.959 519.46 174.208 519.743 174.528C520.09 174.912 520.393 175.196 520.656 175.382C520.917 175.569 521.225 175.65 521.579 175.627C522.068 175.595 522.436 175.444 522.685 175.174C522.934 174.904 523.045 174.571 523.02 174.175C522.996 173.813 522.848 173.451 522.574 173.088C522.301 172.726 521.916 172.403 521.42 172.123C520.924 171.843 520.314 171.633 519.59 171.493C519.276 171.433 518.943 171.395 518.597 171.372L518.52 170.189C518.476 169.523 517.9 169.018 517.234 169.061C516.567 169.105 516.062 169.68 516.105 170.347L516.18 171.49C515.464 171.615 514.832 171.82 514.289 172.112C513.509 172.531 512.932 173.062 512.56 173.703C512.188 174.345 512.024 175.011 512.069 175.702C512.119 176.477 512.384 177.115 512.866 177.617C513.346 178.119 513.97 178.507 514.737 178.783C515.504 179.059 516.49 179.305 517.697 179.523C518.766 179.707 519.54 179.923 520.017 180.17C520.494 180.418 520.752 180.845 520.792 181.452C520.818 181.848 520.62 182.214 520.197 182.55C519.775 182.886 519.218 183.077 518.528 183.122C517.677 183.178 516.995 183.07 516.483 182.799C515.97 182.529 515.517 182.097 515.123 181.505C514.926 181.197 514.724 180.96 514.519 180.796C514.314 180.632 514.03 180.562 513.668 180.585C513.255 180.612 512.922 180.769 512.671 181.056C512.419 181.343 512.305 181.676 512.329 182.056C512.367 182.629 512.615 183.186 513.073 183.726C513.532 184.267 514.215 184.698 515.124 185.02C515.709 185.227 516.365 185.35 517.086 185.39L517.148 186.327C517.191 186.994 517.767 187.499 518.433 187.455C519.1 187.412 519.605 186.836 519.562 186.17L519.502 185.252C520.303 185.124 521.009 184.922 521.615 184.641C522.497 184.233 523.148 183.674 523.567 182.966C523.987 182.257 524.165 181.428 524.103 180.475C524.06 179.842 523.849 179.291 523.467 178.821ZM603.381 118.806L589.404 99.0872C589.227 98.8371 588.904 98.7354 588.616 98.8396L580.733 101.675L571.897 88.4502C571.717 88.1804 571.37 88.0746 571.07 88.1976L558.955 93.1734L548.808 76.4216C548.633 76.1338 548.275 76.0157 547.964 76.1436L535.767 81.153C535.757 81.1571 535.748 81.1628 535.739 81.1677C535.703 81.1841 535.669 81.203 535.637 81.2251C535.624 81.2342 535.612 81.2448 535.599 81.2547C535.572 81.2768 535.547 81.2998 535.523 81.3252C535.517 81.3317 535.509 81.3367 535.503 81.344L529.251 88.7208L527.235 85.449C527.06 85.1636 526.703 85.048 526.394 85.1751L514.195 90.1861C514.182 90.1918 514.17 90.2009 514.157 90.2066C514.137 90.2164 514.117 90.2271 514.097 90.2394C514.069 90.2566 514.044 90.2755 514.019 90.296C514.002 90.3099 513.986 90.3239 513.97 90.3394C513.946 90.364 513.925 90.3911 513.905 90.419C513.896 90.4313 513.884 90.4403 513.876 90.4534L499.951 112.471C499.882 112.579 499.846 112.706 499.845 112.834L499.814 120.834C499.814 120.836 499.815 120.838 499.815 120.839C499.815 120.851 499.817 120.863 499.818 120.875C499.819 120.912 499.823 120.947 499.83 120.98C499.833 120.995 499.839 121.009 499.843 121.023C499.852 121.054 499.861 121.085 499.874 121.114C499.881 121.13 499.89 121.144 499.897 121.158C499.912 121.185 499.927 121.211 499.945 121.235C499.95 121.242 499.952 121.249 499.958 121.256C499.964 121.264 499.972 121.27 499.979 121.277C499.997 121.299 500.018 121.321 500.04 121.34C500.053 121.353 500.066 121.364 500.08 121.376C500.104 121.394 500.129 121.41 500.156 121.426C500.17 121.434 500.184 121.443 500.198 121.45C500.229 121.465 500.261 121.476 500.293 121.486C500.305 121.49 500.317 121.496 500.33 121.499C500.375 121.511 500.422 121.518 500.471 121.521L590.598 124.894C590.607 124.894 590.616 124.895 590.624 124.895C590.624 124.895 590.624 124.895 590.625 124.895C590.68 124.895 590.734 124.886 590.787 124.873C590.803 124.869 590.817 124.864 590.832 124.86C590.849 124.854 590.867 124.851 590.884 124.844L603.083 119.834C603.276 119.754 603.422 119.592 603.48 119.392C603.538 119.191 603.502 118.976 603.381 118.806Z" fill="#0C0C0F"/>
<path d="M568.493 108.153C568.198 108.259 567.867 108.151 567.693 107.89L558.938 94.7864L548.219 101.87C548.064 101.973 547.874 102.007 547.693 101.967C547.512 101.926 547.354 101.814 547.258 101.655L535.931 82.9546L520.833 100.772C520.691 100.939 520.476 101.027 520.26 101.011C520.042 100.995 519.844 100.874 519.729 100.688L514.447 92.1107L501.212 113.036L501.184 120.18L589.267 123.477L576.391 105.312L568.493 108.153Z" fill="white"/>
</g>
<defs>
<clipPath id="clip0_2971_26698">
<path d="M0 16C0 7.16344 7.16344 0 16 0H700C708.837 0 716 7.16344 716 16V204C716 212.837 708.837 220 700 220H16C7.16345 220 0 212.837 0 204V16Z" fill="white"/>
</clipPath>
</defs>
</svg>
